<svg width="228" height="250" viewBox="0 0 228 250" fill="none" xmlns="http://www.w3.org/2000/svg">
<path d="M35.7647 17.8571C35.7647 27.7194 27.7585 35.7143 17.8824 35.7143C8.0062 35.7143 0 27.7194 0 17.8571C0 7.99492 8.0062 0 17.8824 0C27.7585 0 35.7647 7.99492 35.7647 17.8571Z" fill="url(#paint0_linear_30_1)"/>
<path d="M35.7647 71.4286C35.7647 81.2908 27.7585 89.2857 17.8824 89.2857C8.0062 89.2857 0 81.2908 0 71.4286C0 61.5663 8.0062 53.5714 17.8824 53.5714C27.7585 53.5714 35.7647 61.5663 35.7647 71.4286Z" fill="url(#paint1_linear_30_1)"/>
<path d="M35.7647 125C35.7647 134.862 27.7585 142.857 17.8824 142.857C8.0062 142.857 0 134.862 0 125C0 115.138 8.0062 107.143 17.8824 107.143C27.7585 107.143 35.7647 115.138 35.7647 125Z" fill="url(#paint2_linear_30_1)"/>
<path d="M35.7647 178.571C35.7647 188.434 27.7585 196.429 17.8824 196.429C8.0062 196.429 0 188.434 0 178.571C0 168.709 8.0062 160.714 17.8824 160.714C27.7585 160.714 35.7647 168.709 35.7647 178.571Z" fill="url(#paint3_linear_30_1)"/>
<path d="M35.7647 232.143C35.7647 242.005 27.7585 250 17.8824 250C8.0062 250 0 242.005 0 232.143C0 222.281 8.0062 214.286 17.8824 214.286C27.7585 214.286 35.7647 222.281 35.7647 232.143Z" fill="url(#paint4_linear_30_1)"/>
<path d="M87.1765 22.3214C87.1765 31.5673 79.6707 39.0625 70.4118 39.0625C61.1529 39.0625 53.6471 31.5673 53.6471 22.3214C53.6471 13.0756 61.1529 5.58036 70.4118 5.58036C79.6707 5.58036 87.1765 13.0756 87.1765 22.3214Z" fill="url(#paint5_linear_30_1)"/>
<path d="M87.1765 73.6607C87.1765 82.9066 79.6707 90.4018 70.4118 90.4018C61.1529 90.4018 53.6471 82.9066 53.6471 73.6607C53.6471 64.4149 61.1529 56.9196 70.4118 56.9196C79.6707 56.9196 87.1765 64.4149 87.1765 73.6607Z" fill="url(#paint6_linear_30_1)"/>
<path d="M87.1765 125C87.1765 134.246 79.6707 141.741 70.4118 141.741C61.1529 141.741 53.6471 134.246 53.6471 125C53.6471 115.754 61.1529 108.259 70.4118 108.259C79.6707 108.259 87.1765 115.754 87.1765 125Z" fill="url(#paint7_linear_30_1)"/>
<path d="M87.1765 176.339C87.1765 185.585 79.6707 193.08 70.4118 193.08C61.1529 193.08 53.6471 185.585 53.6471 176.339C53.6471 167.093 61.1529 159.598 70.4118 159.598C79.6707 159.598 87.1765 167.093 87.1765 176.339Z" fill="url(#paint8_linear_30_1)"/>
<path d="M87.1765 227.679C87.1765 236.924 79.6707 244.42 70.4118 244.42C61.1529 244.42 53.6471 236.924 53.6471 227.679C53.6471 218.433 61.1529 210.938 70.4118 210.938C79.6707 210.938 87.1765 218.433 87.1765 227.679Z" fill="url(#paint9_linear_30_1)"/>
<path d="M136.353 26.7857C136.353 35.4152 129.348 42.4107 120.706 42.4107C112.064 42.4107 105.059 35.4152 105.059 26.7857C105.059 18.1563 112.064 11.1607 120.706 11.1607C129.348 11.1607 136.353 18.1563 136.353 26.7857Z" fill="url(#paint10_linear_30_1)"/>
<path d="M136.353 75.8929C136.353 84.5223 129.348 91.5179 120.706 91.5179C112.064 91.5179 105.059 84.5223 105.059 75.8929C105.059 67.2634 112.064 60.2679 120.706 60.2679C129.348 60.2679 136.353 67.2634 136.353 75.8929Z" fill="url(#paint11_linear_30_1)"/>
<path d="M136.353 125C136.353 133.629 129.348 140.625 120.706 140.625C112.064 140.625 105.059 133.629 105.059 125C105.059 116.371 112.064 109.375 120.706 109.375C129.348 109.375 136.353 116.371 136.353 125Z" fill="url(#paint12_linear_30_1)"/>
<path d="M136.353 174.107C136.353 182.737 129.348 189.732 120.706 189.732C112.064 189.732 105.059 182.737 105.059 174.107C105.059 165.478 112.064 158.482 120.706 158.482C129.348 158.482 136.353 165.478 136.353 174.107Z" fill="url(#paint13_linear_30_1)"/>
<path d="M136.353 223.214C136.353 231.844 129.348 238.839 120.706 238.839C112.064 238.839 105.059 231.844 105.059 223.214C105.059 214.585 112.064 207.589 120.706 207.589C129.348 207.589 136.353 214.585 136.353 223.214Z" fill="url(#paint14_linear_30_1)"/>
<path d="M183.294 31.25C183.294 39.2631 176.789 45.7589 168.765 45.7589C160.74 45.7589 154.235 39.2631 154.235 31.25C154.235 23.2369 160.74 16.7411 168.765 16.7411C176.789 16.7411 183.294 23.2369 183.294 31.25Z" fill="url(#paint15_linear_30_1)"/>
<path d="M183.294 78.125C183.294 86.1381 176.789 92.6339 168.765 92.6339C160.74 92.6339 154.235 86.1381 154.235 78.125C154.235 70.1119 160.74 63.6161 168.765 63.6161C176.789 63.6161 183.294 70.1119 183.294 78.125Z" fill="url(#paint16_linear_30_1)"/>
<path d="M183.294 125C183.294 133.013 176.789 139.509 168.765 139.509C160.74 139.509 154.235 133.013 154.235 125C154.235 116.987 160.74 110.491 168.765 110.491C176.789 110.491 183.294 116.987 183.294 125Z" fill="url(#paint17_linear_30_1)"/>
<path d="M183.294 171.875C183.294 179.888 176.789 186.384 168.765 186.384C160.74 186.384 154.235 179.888 154.235 171.875C154.235 163.862 160.74 157.366 168.765 157.366C176.789 157.366 183.294 163.862 183.294 171.875Z" fill="url(#paint18_linear_30_1)"/>
<path d="M183.294 218.75C183.294 226.763 176.789 233.259 168.765 233.259C160.74 233.259 154.235 226.763 154.235 218.75C154.235 210.737 160.74 204.241 168.765 204.241C176.789 204.241 183.294 210.737 183.294 218.75Z" fill="url(#paint19_linear_30_1)"/>
<path d="M228 35.7143C228 43.111 221.995 49.1071 214.588 49.1071C207.181 49.1071 201.176 43.111 201.176 35.7143C201.176 28.3176 207.181 22.3214 214.588 22.3214C221.995 22.3214 228 28.3176 228 35.7143Z" fill="url(#paint20_linear_30_1)"/>
<path d="M228 80.3571C228 87.7538 221.995 93.75 214.588 93.75C207.181 93.75 201.176 87.7538 201.176 80.3571C201.176 72.9605 207.181 66.9643 214.588 66.9643C221.995 66.9643 228 72.9605 228 80.3571Z" fill="url(#paint21_linear_30_1)"/>
<path d="M228 125C228 132.397 221.995 138.393 214.588 138.393C207.181 138.393 201.176 132.397 201.176 125C201.176 117.603 207.181 111.607 214.588 111.607C221.995 111.607 228 117.603 228 125Z" fill="url(#paint22_linear_30_1)"/>
<path d="M228 169.643C228 177.04 221.995 183.036 214.588 183.036C207.181 183.036 201.176 177.04 201.176 169.643C201.176 162.246 207.181 156.25 214.588 156.25C221.995 156.25 228 162.246 228 169.643Z" fill="url(#paint23_linear_30_1)"/>
<path d="M228 214.286C228 221.682 221.995 227.679 214.588 227.679C207.181 227.679 201.176 221.682 201.176 214.286C201.176 206.889 207.181 200.893 214.588 200.893C221.995 200.893 228 206.889 228 214.286Z" fill="url(#paint24_linear_30_1)"/>
<defs>
<linearGradient id="paint0_linear_30_1" x1="35" y1="30" x2="214.588" y2="227.679" gradientUnits="userSpaceOnUse">
<stop stop-color="#3390FC"/>
<stop offset="1" stop-color="#80D1FF"/>
</linearGradient>
<linearGradient id="paint1_linear_30_1" x1="35" y1="30" x2="214.588" y2="227.679" gradientUnits="userSpaceOnUse">
<stop stop-color="#3390FC"/>
<stop offset="1" stop-color="#80D1FF"/>
</linearGradient>
<linearGradient id="paint2_linear_30_1" x1="35" y1="30" x2="214.588" y2="227.679" gradientUnits="userSpaceOnUse">
<stop stop-color="#3390FC"/>
<stop offset="1" stop-color="#80D1FF"/>
</linearGradient>
<linearGradient id="paint3_linear_30_1" x1="35" y1="30" x2="214.588" y2="227.679" gradientUnits="userSpaceOnUse">
<stop stop-color="#3390FC"/>
<stop offset="1" stop-color="#80D1FF"/>
</linearGradient>
<linearGradient id="paint4_linear_30_1" x1="35" y1="30" x2="214.588" y2="227.679" gradientUnits="userSpaceOnUse">
<stop stop-color="#3390FC"/>
<stop offset="1" stop-color="#80D1FF"/>
</linearGradient>
<linearGradient id="paint5_linear_30_1" x1="35" y1="30" x2="214.588" y2="227.679" gradientUnits="userSpaceOnUse">
<stop stop-color="#3390FC"/>
<stop offset="1" stop-color="#80D1FF"/>
</linearGradient>
<linearGradient id="paint6_linear_30_1" x1="35" y1="30" x2="214.588" y2="227.679" gradientUnits="userSpaceOnUse">
<stop stop-color="#3390FC"/>
<stop offset="1" stop-color="#80D1FF"/>
</linearGradient>
<linearGradient id="paint7_linear_30_1" x1="35" y1="30" x2="214.588" y2="227.679" gradientUnits="userSpaceOnUse">
<stop stop-color="#3390FC"/>
<stop offset="1" stop-color="#80D1FF"/>
</linearGradient>
<linearGradient id="paint8_linear_30_1" x1="35" y1="30" x2="214.588" y2="227.679" gradientUnits="userSpaceOnUse">
<stop stop-color="#3390FC"/>
<stop offset="1" stop-color="#80D1FF"/>
</linearGradient>
<linearGradient id="paint9_linear_30_1" x1="35" y1="30" x2="214.588" y2="227.679" gradientUnits="userSpaceOnUse">
<stop stop-color="#3390FC"/>
<stop offset="1" stop-color="#80D1FF"/>
</linearGradient>
<linearGradient id="paint10_linear_30_1" x1="35" y1="30" x2="214.588" y2="227.679" gradientUnits="userSpaceOnUse">
<stop stop-color="#3390FC"/>
<stop offset="1" stop-color="#80D1FF"/>
</linearGradient>
<linearGradient id="paint11_linear_30_1" x1="35" y1="30" x2="214.588" y2="227.679" gradientUnits="userSpaceOnUse">
<stop stop-color="#3390FC"/>
<stop offset="1" stop-color="#80D1FF"/>
</linearGradient>
<linearGradient id="paint12_linear_30_1" x1="35" y1="30" x2="214.588" y2="227.679" gradientUnits="userSpaceOnUse">
<stop stop-color="#3390FC"/>
<stop offset="1" stop-color="#80D1FF"/>
</linearGradient>
<linearGradient id="paint13_linear_30_1" x1="35" y1="30" x2="214.588" y2="227.679" gradientUnits="userSpaceOnUse">
<stop stop-color="#3390FC"/>
<stop offset="1" stop-color="#80D1FF"/>
</linearGradient>
<linearGradient id="paint14_linear_30_1" x1="35" y1="30" x2="214.588" y2="227.679" gradientUnits="userSpaceOnUse">
<stop stop-color="#3390FC"/>
<stop offset="1" stop-color="#80D1FF"/>
</linearGradient>
<linearGradient id="paint15_linear_30_1" x1="35" y1="30" x2="214.588" y2="227.679" gradientUnits="userSpaceOnUse">
<stop stop-color="#3390FC"/>
<stop offset="1" stop-color="#80D1FF"/>
</linearGradient>
<linearGradient id="paint16_linear_30_1" x1="35" y1="30" x2="214.588" y2="227.679" gradientUnits="userSpaceOnUse">
<stop stop-color="#3390FC"/>
<stop offset="1" stop-color="#80D1FF"/>
</linearGradient>
<linearGradient id="paint17_linear_30_1" x1="35" y1="30" x2="214.588" y2="227.679" gradientUnits="userSpaceOnUse">
<stop stop-color="#3390FC"/>
<stop offset="1" stop-color="#80D1FF"/>
</linearGradient>
<linearGradient id="paint18_linear_30_1" x1="35" y1="30" x2="214.588" y2="227.679" gradientUnits="userSpaceOnUse">
<stop stop-color="#3390FC"/>
<stop offset="1" stop-color="#80D1FF"/>
</linearGradient>
<linearGradient id="paint19_linear_30_1" x1="35" y1="30" x2="214.588" y2="227.679" gradientUnits="userSpaceOnUse">
<stop stop-color="#3390FC"/>
<stop offset="1" stop-color="#80D1FF"/>
</linearGradient>
<linearGradient id="paint20_linear_30_1" x1="35" y1="30" x2="214.588" y2="227.679" gradientUnits="userSpaceOnUse">
<stop stop-color="#3390FC"/>
<stop offset="1" stop-color="#80D1FF"/>
</linearGradient>
<linearGradient id="paint21_linear_30_1" x1="35" y1="30" x2="214.588" y2="227.679" gradientUnits="userSpaceOnUse">
<stop stop-color="#3390FC"/>
<stop offset="1" stop-color="#80D1FF"/>
</linearGradient>
<linearGradient id="paint22_linear_30_1" x1="35" y1="30" x2="214.588" y2="227.679" gradientUnits="userSpaceOnUse">
<stop stop-color="#3390FC"/>
<stop offset="1" stop-color="#80D1FF"/>
</linearGradient>
<linearGradient id="paint23_linear_30_1" x1="35" y1="30" x2="214.588" y2="227.679" gradientUnits="userSpaceOnUse">
<stop stop-color="#3390FC"/>
<stop offset="1" stop-color="#80D1FF"/>
</linearGradient>
<linearGradient id="paint24_linear_30_1" x1="35" y1="30" x2="214.588" y2="227.679" gradientUnits="userSpaceOnUse">
<stop stop-color="#3390FC"/>
<stop offset="1" stop-color="#80D1FF"/>
</linearGradient>
</defs>
</svg>
