<svg width="227" height="250" viewBox="0 0 227 250" fill="none" xmlns="http://www.w3.org/2000/svg">
<path d="M35.6078 17.8571C35.6078 27.7194 27.6368 35.7143 17.8039 35.7143C7.97109 35.7143 0 27.7194 0 17.8571C0 7.99492 7.97109 0 17.8039 0C27.6368 0 35.6078 7.99492 35.6078 17.8571Z" fill="url(#paint0_linear_30_3)"/>
<path d="M35.6078 71.4286C35.6078 81.2908 27.6368 89.2857 17.8039 89.2857C7.97109 89.2857 0 81.2908 0 71.4286C0 61.5663 7.97109 53.5714 17.8039 53.5714C27.6368 53.5714 35.6078 61.5663 35.6078 71.4286Z" fill="url(#paint1_linear_30_3)"/>
<path d="M35.6078 125C35.6078 134.862 27.6368 142.857 17.8039 142.857C7.97109 142.857 0 134.862 0 125C0 115.138 7.97109 107.143 17.8039 107.143C27.6368 107.143 35.6078 115.138 35.6078 125Z" fill="url(#paint2_linear_30_3)"/>
<path d="M35.6078 178.571C35.6078 188.434 27.6368 196.429 17.8039 196.429C7.97109 196.429 0 188.434 0 178.571C0 168.709 7.97109 160.714 17.8039 160.714C27.6368 160.714 35.6078 168.709 35.6078 178.571Z" fill="url(#paint3_linear_30_3)"/>
<path d="M35.6078 232.143C35.6078 242.005 27.6368 250 17.8039 250C7.97109 250 0 242.005 0 232.143C0 222.281 7.97109 214.286 17.8039 214.286C27.6368 214.286 35.6078 222.281 35.6078 232.143Z" fill="url(#paint4_linear_30_3)"/>
<path d="M86.7941 22.3214C86.7941 31.5673 79.3212 39.0625 70.1029 39.0625C60.8847 39.0625 53.4118 31.5673 53.4118 22.3214C53.4118 13.0756 60.8847 5.58036 70.1029 5.58036C79.3212 5.58036 86.7941 13.0756 86.7941 22.3214Z" fill="url(#paint5_linear_30_3)"/>
<path d="M86.7941 73.6607C86.7941 82.9066 79.3212 90.4018 70.1029 90.4018C60.8847 90.4018 53.4118 82.9066 53.4118 73.6607C53.4118 64.4149 60.8847 56.9196 70.1029 56.9196C79.3212 56.9196 86.7941 64.4149 86.7941 73.6607Z" fill="url(#paint6_linear_30_3)"/>
<path d="M86.7941 125C86.7941 134.246 79.3212 141.741 70.1029 141.741C60.8847 141.741 53.4118 134.246 53.4118 125C53.4118 115.754 60.8847 108.259 70.1029 108.259C79.3212 108.259 86.7941 115.754 86.7941 125Z" fill="url(#paint7_linear_30_3)"/>
<path d="M86.7941 176.339C86.7941 185.585 79.3212 193.08 70.1029 193.08C60.8847 193.08 53.4118 185.585 53.4118 176.339C53.4118 167.093 60.8847 159.598 70.1029 159.598C79.3212 159.598 86.7941 167.093 86.7941 176.339Z" fill="url(#paint8_linear_30_3)"/>
<path d="M86.7941 227.679C86.7941 236.924 79.3212 244.42 70.1029 244.42C60.8847 244.42 53.4118 236.924 53.4118 227.679C53.4118 218.433 60.8847 210.938 70.1029 210.938C79.3212 210.938 86.7941 218.433 86.7941 227.679Z" fill="url(#paint9_linear_30_3)"/>
<path d="M135.755 26.7857C135.755 35.4152 128.78 42.4107 120.176 42.4107C111.573 42.4107 104.598 35.4152 104.598 26.7857C104.598 18.1563 111.573 11.1607 120.176 11.1607C128.78 11.1607 135.755 18.1563 135.755 26.7857Z" fill="url(#paint10_linear_30_3)"/>
<path d="M135.755 75.8929C135.755 84.5223 128.78 91.5179 120.176 91.5179C111.573 91.5179 104.598 84.5223 104.598 75.8929C104.598 67.2634 111.573 60.2679 120.176 60.2679C128.78 60.2679 135.755 67.2634 135.755 75.8929Z" fill="url(#paint11_linear_30_3)"/>
<path d="M135.755 125C135.755 133.629 128.78 140.625 120.176 140.625C111.573 140.625 104.598 133.629 104.598 125C104.598 116.371 111.573 109.375 120.176 109.375C128.78 109.375 135.755 116.371 135.755 125Z" fill="url(#paint12_linear_30_3)"/>
<path d="M135.755 174.107C135.755 182.737 128.78 189.732 120.176 189.732C111.573 189.732 104.598 182.737 104.598 174.107C104.598 165.478 111.573 158.482 120.176 158.482C128.78 158.482 135.755 165.478 135.755 174.107Z" fill="url(#paint13_linear_30_3)"/>
<path d="M135.755 223.214C135.755 231.844 128.78 238.839 120.176 238.839C111.573 238.839 104.598 231.844 104.598 223.214C104.598 214.585 111.573 207.589 120.176 207.589C128.78 207.589 135.755 214.585 135.755 223.214Z" fill="url(#paint14_linear_30_3)"/>
<path d="M182.49 31.25C182.49 39.2631 176.014 45.7589 168.025 45.7589C160.035 45.7589 153.559 39.2631 153.559 31.25C153.559 23.2369 160.035 16.7411 168.025 16.7411C176.014 16.7411 182.49 23.2369 182.49 31.25Z" fill="url(#paint15_linear_30_3)"/>
<path d="M182.49 78.125C182.49 86.1381 176.014 92.6339 168.025 92.6339C160.035 92.6339 153.559 86.1381 153.559 78.125C153.559 70.1119 160.035 63.6161 168.025 63.6161C176.014 63.6161 182.49 70.1119 182.49 78.125Z" fill="url(#paint16_linear_30_3)"/>
<path d="M182.49 125C182.49 133.013 176.014 139.509 168.025 139.509C160.035 139.509 153.559 133.013 153.559 125C153.559 116.987 160.035 110.491 168.025 110.491C176.014 110.491 182.49 116.987 182.49 125Z" fill="url(#paint17_linear_30_3)"/>
<path d="M182.49 171.875C182.49 179.888 176.014 186.384 168.025 186.384C160.035 186.384 153.559 179.888 153.559 171.875C153.559 163.862 160.035 157.366 168.025 157.366C176.014 157.366 182.49 163.862 182.49 171.875Z" fill="url(#paint18_linear_30_3)"/>
<path d="M182.49 218.75C182.49 226.763 176.014 233.259 168.025 233.259C160.035 233.259 153.559 226.763 153.559 218.75C153.559 210.737 160.035 204.241 168.025 204.241C176.014 204.241 182.49 210.737 182.49 218.75Z" fill="url(#paint19_linear_30_3)"/>
<path d="M227 35.7143C227 43.111 221.022 49.1071 213.647 49.1071C206.272 49.1071 200.294 43.111 200.294 35.7143C200.294 28.3176 206.272 22.3214 213.647 22.3214C221.022 22.3214 227 28.3176 227 35.7143Z" fill="url(#paint20_linear_30_3)"/>
<path d="M227 80.3571C227 87.7538 221.022 93.75 213.647 93.75C206.272 93.75 200.294 87.7538 200.294 80.3571C200.294 72.9605 206.272 66.9643 213.647 66.9643C221.022 66.9643 227 72.9605 227 80.3571Z" fill="url(#paint21_linear_30_3)"/>
<path d="M227 125C227 132.397 221.022 138.393 213.647 138.393C206.272 138.393 200.294 132.397 200.294 125C200.294 117.603 206.272 111.607 213.647 111.607C221.022 111.607 227 117.603 227 125Z" fill="url(#paint22_linear_30_3)"/>
<path d="M227 169.643C227 177.04 221.022 183.036 213.647 183.036C206.272 183.036 200.294 177.04 200.294 169.643C200.294 162.246 206.272 156.25 213.647 156.25C221.022 156.25 227 162.246 227 169.643Z" fill="url(#paint23_linear_30_3)"/>
<path d="M227 214.286C227 221.682 221.022 227.679 213.647 227.679C206.272 227.679 200.294 221.682 200.294 214.286C200.294 206.889 206.272 200.893 213.647 200.893C221.022 200.893 227 206.889 227 214.286Z" fill="url(#paint24_linear_30_3)"/>
<defs>
<linearGradient id="paint0_linear_30_3" x1="26" y1="26" x2="204" y2="225" gradientUnits="userSpaceOnUse">
<stop stop-color="#7927FF"/>
<stop offset="1" stop-color="#A486D5"/>
</linearGradient>
<linearGradient id="paint1_linear_30_3" x1="26" y1="26" x2="204" y2="225" gradientUnits="userSpaceOnUse">
<stop stop-color="#7927FF"/>
<stop offset="1" stop-color="#A486D5"/>
</linearGradient>
<linearGradient id="paint2_linear_30_3" x1="26" y1="26" x2="204" y2="225" gradientUnits="userSpaceOnUse">
<stop stop-color="#7927FF"/>
<stop offset="1" stop-color="#A486D5"/>
</linearGradient>
<linearGradient id="paint3_linear_30_3" x1="26" y1="26" x2="204" y2="225" gradientUnits="userSpaceOnUse">
<stop stop-color="#7927FF"/>
<stop offset="1" stop-color="#A486D5"/>
</linearGradient>
<linearGradient id="paint4_linear_30_3" x1="26" y1="26" x2="204" y2="225" gradientUnits="userSpaceOnUse">
<stop stop-color="#7927FF"/>
<stop offset="1" stop-color="#A486D5"/>
</linearGradient>
<linearGradient id="paint5_linear_30_3" x1="26" y1="26" x2="204" y2="225" gradientUnits="userSpaceOnUse">
<stop stop-color="#7927FF"/>
<stop offset="1" stop-color="#A486D5"/>
</linearGradient>
<linearGradient id="paint6_linear_30_3" x1="26" y1="26" x2="204" y2="225" gradientUnits="userSpaceOnUse">
<stop stop-color="#7927FF"/>
<stop offset="1" stop-color="#A486D5"/>
</linearGradient>
<linearGradient id="paint7_linear_30_3" x1="26" y1="26" x2="204" y2="225" gradientUnits="userSpaceOnUse">
<stop stop-color="#7927FF"/>
<stop offset="1" stop-color="#A486D5"/>
</linearGradient>
<linearGradient id="paint8_linear_30_3" x1="26" y1="26" x2="204" y2="225" gradientUnits="userSpaceOnUse">
<stop stop-color="#7927FF"/>
<stop offset="1" stop-color="#A486D5"/>
</linearGradient>
<linearGradient id="paint9_linear_30_3" x1="26" y1="26" x2="204" y2="225" gradientUnits="userSpaceOnUse">
<stop stop-color="#7927FF"/>
<stop offset="1" stop-color="#A486D5"/>
</linearGradient>
<linearGradient id="paint10_linear_30_3" x1="26" y1="26" x2="204" y2="225" gradientUnits="userSpaceOnUse">
<stop stop-color="#7927FF"/>
<stop offset="1" stop-color="#A486D5"/>
</linearGradient>
<linearGradient id="paint11_linear_30_3" x1="26" y1="26" x2="204" y2="225" gradientUnits="userSpaceOnUse">
<stop stop-color="#7927FF"/>
<stop offset="1" stop-color="#A486D5"/>
</linearGradient>
<linearGradient id="paint12_linear_30_3" x1="26" y1="26" x2="204" y2="225" gradientUnits="userSpaceOnUse">
<stop stop-color="#7927FF"/>
<stop offset="1" stop-color="#A486D5"/>
</linearGradient>
<linearGradient id="paint13_linear_30_3" x1="26" y1="26" x2="204" y2="225" gradientUnits="userSpaceOnUse">
<stop stop-color="#7927FF"/>
<stop offset="1" stop-color="#A486D5"/>
</linearGradient>
<linearGradient id="paint14_linear_30_3" x1="26" y1="26" x2="204" y2="225" gradientUnits="userSpaceOnUse">
<stop stop-color="#7927FF"/>
<stop offset="1" stop-color="#A486D5"/>
</linearGradient>
<linearGradient id="paint15_linear_30_3" x1="26" y1="26" x2="204" y2="225" gradientUnits="userSpaceOnUse">
<stop stop-color="#7927FF"/>
<stop offset="1" stop-color="#A486D5"/>
</linearGradient>
<linearGradient id="paint16_linear_30_3" x1="26" y1="26" x2="204" y2="225" gradientUnits="userSpaceOnUse">
<stop stop-color="#7927FF"/>
<stop offset="1" stop-color="#A486D5"/>
</linearGradient>
<linearGradient id="paint17_linear_30_3" x1="26" y1="26" x2="204" y2="225" gradientUnits="userSpaceOnUse">
<stop stop-color="#7927FF"/>
<stop offset="1" stop-color="#A486D5"/>
</linearGradient>
<linearGradient id="paint18_linear_30_3" x1="26" y1="26" x2="204" y2="225" gradientUnits="userSpaceOnUse">
<stop stop-color="#7927FF"/>
<stop offset="1" stop-color="#A486D5"/>
</linearGradient>
<linearGradient id="paint19_linear_30_3" x1="26" y1="26" x2="204" y2="225" gradientUnits="userSpaceOnUse">
<stop stop-color="#7927FF"/>
<stop offset="1" stop-color="#A486D5"/>
</linearGradient>
<linearGradient id="paint20_linear_30_3" x1="26" y1="26" x2="204" y2="225" gradientUnits="userSpaceOnUse">
<stop stop-color="#7927FF"/>
<stop offset="1" stop-color="#A486D5"/>
</linearGradient>
<linearGradient id="paint21_linear_30_3" x1="26" y1="26" x2="204" y2="225" gradientUnits="userSpaceOnUse">
<stop stop-color="#7927FF"/>
<stop offset="1" stop-color="#A486D5"/>
</linearGradient>
<linearGradient id="paint22_linear_30_3" x1="26" y1="26" x2="204" y2="225" gradientUnits="userSpaceOnUse">
<stop stop-color="#7927FF"/>
<stop offset="1" stop-color="#A486D5"/>
</linearGradient>
<linearGradient id="paint23_linear_30_3" x1="26" y1="26" x2="204" y2="225" gradientUnits="userSpaceOnUse">
<stop stop-color="#7927FF"/>
<stop offset="1" stop-color="#A486D5"/>
</linearGradient>
<linearGradient id="paint24_linear_30_3" x1="26" y1="26" x2="204" y2="225" gradientUnits="userSpaceOnUse">
<stop stop-color="#7927FF"/>
<stop offset="1" stop-color="#A486D5"/>
</linearGradient>
</defs>
</svg>
