<svg width="240" height="324" viewBox="0 0 240 324" fill="none" xmlns="http://www.w3.org/2000/svg">
<path fill-rule="evenodd" clip-rule="evenodd" d="M58.9212 176.597C60.7626 169.454 62.4561 166.425 65.7273 163.942C68.787 161.62 73.2535 159.669 79.7706 158.244C86.5586 157.057 86.751 153.528 88.453 147.857C88.9495 146.152 91.41 145.698 92.4719 146.927C92.6216 146.766 92.7777 146.618 92.9393 146.484C92.7947 145.671 93.9784 143.34 93.9388 142.562C93.526 134.444 96.181 130.367 102.808 128.852C104.249 128.522 114.037 128.328 115.442 128.716C121.585 130.415 127.632 135.808 126.707 142.305C128.635 144.826 130.522 146.364 133.497 147.176C140.117 148.017 146.737 148.765 153.359 149.405C166.322 151.438 178.475 158.301 186.782 168.309C187.548 169.233 187.769 170.487 187.093 171.472C187.623 173.742 190.605 179.246 188.259 180.802C192.116 190.03 200.993 207.868 201.011 212.965C201.08 234.373 198.767 262.24 177.646 274.088C176.8 274.919 176.679 275.839 176.313 277.076C175.384 280.974 172.012 283.76 168.32 283.532C150.137 283.936 132.524 281.717 114.34 281.61C106.321 281.563 96.6768 282.76 89.7105 283.557C82.7443 284.355 75.7122 283.65 69.0269 281.61C68.4632 282.498 67.3235 283.015 66.1673 282.76C59.2369 281.383 53.6326 277.111 48.7514 272.442C47.2597 269.728 41.4344 261.995 43.7498 259.304C41.6509 250.428 41.7599 240.892 45.4899 232.441C44.9612 230.892 45.9249 229.189 45.4899 227.59C45.1751 226.432 44.3689 225.953 43.9631 224.807C43.3921 223.194 44.0131 221.029 44.656 219.383C44.9195 218.563 44.1711 217.68 43.9631 216.843C42.9767 212.894 45.2355 213.242 46.8639 210.602C46.8396 210.594 46.4162 208.71 46.4181 208.719C46.1687 207.374 46.7934 205.65 47.3382 204.527C47.7065 203.768 48.4953 203.293 49.2791 203.38C48.4897 200.7 47.4915 198.47 46.4181 195.887C44.5196 191.336 42.1165 186.977 39.3905 182.857C38.2741 181.17 39.7735 179.216 41.5801 179.101C47.4275 178.729 53.2109 177.887 58.9212 176.597Z" fill="white"/>
<path fill-rule="evenodd" clip-rule="evenodd" d="M75.9868 211.018C78.3255 210.1 80.8438 209.593 83.3748 209.397C82.0121 209.158 80.6454 208.927 79.2678 208.809C78.3065 208.727 77.4152 208.735 76.6926 209.464C76.2107 209.95 75.9847 210.576 75.6678 211.151C75.7713 211.104 75.879 211.06 75.9868 211.018ZM50.884 202.441C54.7142 202.636 58.5488 203.547 62.0135 205.197C63.4311 205.873 64.7156 206.85 65.0917 208.456C65.2818 209.276 65.2354 210.124 65.1342 210.952C65.0579 211.58 65.0389 212.381 64.4938 212.806C64.4008 212.877 64.3015 212.932 64.198 212.973C65.4762 213.55 66.6933 214.243 67.775 214.957C68.7635 215.61 69.7797 216.616 70.2361 217.751C70.2741 217.622 70.3121 217.502 70.3501 217.388C71.1276 215.088 72.3255 213.205 74.2121 211.939C73.8783 211.789 73.648 211.434 73.7558 210.944C74.2037 208.896 76.0947 207.116 78.2304 207.243C80.5692 207.38 83.0811 208.232 85.1961 209.308C85.9671 209.291 86.7363 209.301 87.4966 209.335C87.6276 209.339 87.6213 209.517 87.4966 209.532C86.8797 209.61 86.2628 209.697 85.6459 209.798C84.1797 210.033 82.7178 210.331 81.2877 210.701C79.572 211.145 77.7973 211.59 76.1938 212.366C73.0842 213.873 71.1593 217.813 71.5544 221.241C71.6199 221.803 71.8375 223.502 72.6173 223.327C73.2762 223.179 73.5382 221.803 73.7685 221.293C74.3854 219.941 75.4966 219.057 76.8297 218.459C78.3952 217.755 80.0706 217.28 81.6933 216.726C82.6121 216.411 83.5311 216.096 84.4523 215.784C85.3945 215.46 86.2903 215.014 87.2938 215.24C87.9002 215.378 87.9699 216.101 87.6297 216.515C87.1121 217.147 86.3431 217.333 85.5973 217.593C84.6128 217.935 83.6304 218.278 82.648 218.62C81.1292 219.148 79.5382 219.594 78.0574 220.241L78.1037 220.347C78.2243 220.313 78.3659 220.433 78.3424 220.581C78.1206 221.949 77.8121 223.53 78.1546 224.899C78.4248 225.985 79.3778 227.188 80.6157 226.869C80.4213 226.691 80.3494 226.385 80.4804 226.102C80.9708 225.053 87.3931 220.915 87.9656 222.452C87.9847 222.507 87.9257 222.547 87.879 222.539C87.391 222.437 86.5734 223.27 86.1828 223.534C85.6187 223.914 85.0461 224.286 84.4882 224.677C83.8776 225.104 83.2818 225.552 82.7009 226.015C82.2445 226.379 81.9002 226.757 81.3764 226.941C81.6509 227.072 81.8687 227.315 81.9614 227.625C82.198 228.435 82.6544 229.122 83.4466 229.479C84.2769 229.851 85.2128 229.616 86.0875 229.708C87.279 229.828 88.3185 230.394 89.1868 231.204C91.01 232.907 91.9248 235.909 94.4748 236.714C95.998 237.194 97.6882 236.891 99.2304 236.673C100.952 236.43 102.63 236.238 104.364 236.492C106.025 236.735 107.595 237.31 109.111 238.011C110.533 238.669 112.105 239.413 113.366 240.393C113.626 239.592 113.888 238.8 114.087 237.982C114.556 236.048 114.809 234.078 114.871 232.091C114.928 230.2 114.822 228.3 114.66 226.417C114.579 225.476 114.452 224.54 114.372 223.599C114.351 223.363 114.309 223.109 114.277 222.856C112.025 221.526 109.659 220.507 107.274 219.459C107.267 219.457 107.261 219.453 107.254 219.451C107.18 219.417 107.109 219.385 107.035 219.353C107.037 219.349 107.039 219.345 107.043 219.341C106.771 219.174 106.58 218.952 106.466 218.702C103.029 216.422 100.156 213.309 98.0135 209.678C97.1156 208.156 96.2516 206.577 95.0769 205.244C93.8262 203.821 92.341 202.976 90.503 202.536C88.3544 202.021 86.1403 201.712 83.9389 201.536C82.7368 201.442 81.3933 201.293 80.0833 201.3C79.1706 201.306 78.2771 201.384 77.4572 201.61C76.2424 201.944 75.5325 202.868 74.7699 203.802C74.041 204.698 73.3163 205.597 72.6361 206.531C71.9919 207.416 71.3832 208.331 70.8551 209.291C70.5382 209.866 70.2445 210.458 69.9973 211.068C69.9107 211.284 69.7966 211.529 69.7438 211.753C69.691 211.979 69.7882 212.218 69.5347 212.218C70.5804 212.233 70.5699 213.905 69.5304 213.843C65.4614 213.607 71.2903 205.66 72.1419 204.552C73.3483 202.984 74.5924 200.938 76.5234 200.209C76.5509 200.199 76.5804 200.188 76.6079 200.18C76.0459 199.647 75.6023 199.009 75.1776 198.36C74.7403 197.692 74.2187 196.927 74.0748 196.134C73.984 195.629 74.6114 195.342 74.9093 195.783C75.3424 196.428 75.5516 197.244 75.8748 197.952C76.2044 198.671 76.6058 199.349 76.9227 200.074C77.6854 199.839 78.5093 199.732 79.348 199.696C78.2896 198.263 76.4814 195.498 76.2635 195.143C75.2621 193.499 74.3093 191.804 73.3987 190.107C72.4144 188.268 71.5713 186.353 70.629 184.493C70.0945 183.439 69.5558 182.375 68.9621 181.352C68.7572 181.002 68.5375 180.651 68.2882 180.332C68.2396 180.268 68.1783 180.216 68.1213 180.156C68.0558 180.12 67.9882 180.08 67.9501 180.059C67.6081 179.863 67.4875 179.406 67.2468 179.116C66.8621 178.65 66.41 178.595 65.8311 178.588C64.5975 178.575 63.3593 178.624 62.1276 178.658C60.317 178.708 58.5086 178.78 56.7001 178.875C56.153 178.905 55.6079 178.935 55.0607 178.968C52.4304 179.125 49.8023 179.33 47.1804 179.582C44.8607 179.803 42.541 180.165 40.2192 180.338C43.3628 187.809 46.8487 195.145 50.7954 202.226C50.8354 202.297 50.8652 202.369 50.884 202.441ZM68.3262 221.689C68.8333 221.921 69.3255 222.211 69.784 222.541C69.7079 222.027 69.6889 221.486 69.71 220.943C69.3318 221.348 68.848 221.581 68.3262 221.689ZM46.6818 208.837C46.7178 208.841 46.7516 208.86 46.7685 208.896C47.4699 210.343 47.1764 211.96 46.0311 213.095C45.4311 213.687 44.1234 214.355 44.1658 215.327C44.2018 216.113 45.0572 216.773 45.4227 217.422C45.7628 218.026 45.8896 218.69 45.6171 219.345C45.2685 220.184 44.2945 220.518 43.9607 221.342C43.5382 222.388 44.2248 223.65 44.7065 224.561C45.1544 225.404 45.7335 226.247 46.1178 227.139C48.6931 228.473 50.998 230.519 52.9797 232.597C55.1494 234.869 57.0107 237.542 60.4565 237.475C60.8008 237.468 61.0628 237.65 61.2192 237.901C62.1783 237.946 63.1396 237.965 64.0987 237.969C65.7847 237.977 67.4706 237.961 69.1544 237.908C69.2727 237.5 69.1861 236.946 69.1926 236.602C69.2135 235.492 69.2241 234.384 69.2706 233.275C69.2832 232.967 69.2959 232.656 69.3086 232.347C68.7023 233.444 67.5192 233.943 66.1713 233.867C64.0037 233.74 61.8234 233.385 59.6771 233.066C58.5466 232.899 57.4185 232.708 56.2924 232.506C55.3671 232.341 54.0614 232.383 53.4149 231.641C53.2628 231.468 53.2544 231.151 53.4931 231.035C54.1332 230.72 54.5368 230.895 55.2405 231.031C56.098 231.197 56.9579 231.356 57.8201 231.504C59.4743 231.791 61.1325 232.058 62.7952 232.292C63.7417 232.425 64.6903 232.556 65.6389 232.66C66.4671 232.749 67.4008 232.869 68.0685 232.246C69.4142 230.986 68.66 228.875 67.8086 227.602C67.7917 227.577 67.7917 227.554 67.798 227.533C66.9952 227.344 66.1945 227.125 65.3959 226.97C63.86 226.674 62.3135 226.425 60.7649 226.203C57.5833 225.749 54.3804 225.449 51.1821 225.147C50.3898 225.07 50.3813 223.824 51.1821 223.897C55.7771 224.318 60.3952 224.717 64.929 225.603C66.0656 225.823 67.194 226.072 68.3156 226.353C68.8459 226.484 69.4142 226.689 69.9699 226.696C70.0037 226.696 70.0377 226.696 70.0713 226.693C71.1593 226.66 71.3177 225.728 70.7199 224.952C70.6459 224.857 70.5699 224.762 70.4917 224.671C69.4354 223.411 68.1194 222.57 66.763 221.699C65.2438 221.492 63.729 221.031 62.2417 220.693C58.5699 219.856 54.898 219.019 51.2241 218.184C50.5039 218.02 50.81 216.912 51.5304 217.075C54.3192 217.707 57.1079 218.339 59.8968 218.971L63.9783 219.897C64.7938 220.08 65.8123 220.45 66.7715 220.584C67.2445 220.649 67.703 220.657 68.1171 220.56C69.4544 220.243 69.522 218.571 68.9452 217.578C68.2987 216.462 67.0776 215.765 65.9938 215.133C64.1156 214.036 62.1171 213.247 60.1649 212.339C59.8185 212.262 59.472 212.186 59.1255 212.11C57.11 211.666 54.8072 211.449 52.91 210.635C52.3417 210.394 52.6525 209.498 53.2142 209.511C54.6868 209.543 56.2269 210.067 57.6656 210.377C59.2227 210.715 60.7818 211.051 62.3389 211.387C62.4952 211.421 63.4206 211.717 63.56 211.652C63.6487 211.609 63.6804 211.301 63.71 211.098C63.8053 210.43 63.8748 209.729 63.7713 209.058C63.5431 207.556 62.2903 206.85 61.0227 206.273C58.2001 204.99 55.1051 204.187 52.0248 203.865C51.3149 203.792 50.6051 203.745 49.891 203.722C49.0525 203.696 48.3614 203.548 47.9368 204.375C47.2692 205.677 46.9016 207.351 46.6818 208.837ZM50.6017 256.04C51.2167 253.913 51.0494 251.641 51.4706 249.47C51.688 248.351 51.9849 247.24 52.3089 246.147C52.5705 245.264 53.0068 244.324 53.0562 243.403C53.0592 243.341 52.9867 243.306 52.9368 243.334C52.0692 243.831 51.4028 244.906 50.908 245.749C50.3156 246.758 49.8633 247.815 49.4985 248.926C48.7713 251.14 48.1742 253.81 49.112 256.04C49.3911 256.705 50.3714 256.837 50.6017 256.04ZM69.6086 227.856C69.0889 227.805 68.5692 227.706 68.0494 227.59C68.6304 228.156 69.1671 228.839 69.4651 229.595C69.5114 229.014 69.5708 228.435 69.6487 227.858C69.6361 227.858 69.6213 227.858 69.6086 227.856ZM74.6034 272.149C75.5199 271.509 76.1877 270.615 76.9649 269.825C77.7293 269.049 76.5344 267.853 75.7698 268.63C75.1066 269.303 74.5309 270.144 73.7505 270.689C73.3749 270.951 73.201 271.424 73.4471 271.845C73.6647 272.217 74.2288 272.41 74.6034 272.149ZM79.7144 247.559C78.0414 246.835 76.396 246.047 74.645 245.526C73.5986 245.214 73.1556 246.846 74.1957 247.156C75.8083 247.636 77.3207 248.352 78.8613 249.019C79.8504 249.446 80.7101 247.989 79.7144 247.559ZM97.3827 247.052C97.7919 246.043 96.1561 245.607 95.753 246.603C95.2888 247.749 94.7569 248.866 94.2927 250.012C93.8839 251.021 95.5193 251.457 95.9224 250.461C96.3866 249.315 96.9187 248.199 97.3827 247.052ZM114.822 267.219C115.094 267.583 115.549 267.78 115.978 267.523C116.338 267.307 116.557 266.734 116.281 266.366C115.476 265.292 114.66 264.231 113.715 263.273C112.95 262.497 111.755 263.693 112.52 264.469C113.363 265.324 114.102 266.26 114.822 267.219ZM117.315 154.064C116.54 154.594 115.86 155.238 115.197 155.901C114.427 156.671 115.622 157.867 116.393 157.096C116.951 156.538 117.514 155.971 118.168 155.524C118.546 155.266 118.716 154.786 118.472 154.367C118.253 153.993 117.692 153.807 117.315 154.064ZM91.944 181.273C92.3826 182.151 92.7775 183.013 92.8024 184.011C92.829 185.099 94.5192 185.1 94.4923 184.011C94.46 182.704 93.9783 181.571 93.4035 180.419C92.9171 179.444 91.4598 180.302 91.944 181.273ZM82.6352 159.421C81.7265 158.815 80.8812 160.28 81.7818 160.881C82.512 161.367 83.2423 161.855 83.9725 162.342C84.8807 162.947 85.726 161.482 84.8256 160.882C84.0954 160.395 83.3653 159.908 82.6352 159.421ZM123.012 197.627C123.167 198.702 124.795 198.242 124.641 197.178C124.404 195.533 124.114 193.91 123.668 192.308C123.376 191.26 121.746 191.708 122.038 192.758C122.484 194.36 122.774 195.983 123.012 197.627ZM128.937 216.995C130.025 216.972 130.025 215.281 128.937 215.304C127.953 215.325 126.985 215.584 126.035 215.822C124.979 216.086 125.43 217.716 126.485 217.452C127.288 217.251 128.105 217.013 128.937 216.995ZM131.125 256.01C131.499 256.192 131.882 256.356 132.26 256.529C133.016 256.875 133.772 257.222 134.528 257.569C136.103 258.292 137.677 259.018 139.25 259.746C142.397 261.203 145.57 262.61 148.725 264.052C151.943 265.522 155.152 267.012 158.358 268.51C159.868 269.215 161.389 269.895 162.908 270.581C164.206 271.169 165.811 272.195 167.237 272.292C167.31 272.297 167.335 272.204 167.293 272.156C166.754 271.544 165.895 271.187 165.188 270.789C164.465 270.382 163.728 269.999 162.995 269.611C161.467 268.801 159.936 267.997 158.393 267.216C155.307 265.653 152.214 264.102 149.121 262.553C145.966 260.972 142.816 259.382 139.633 257.857C138.135 257.14 136.635 256.424 135.135 255.711C134.322 255.325 133.508 254.939 132.695 254.554C132.344 254.388 131.996 254.208 131.637 254.059C131.16 253.862 130.797 253.902 130.305 253.78C129.502 253.582 129.154 254.603 129.77 255.048C130.278 255.414 130.545 255.727 131.125 256.01ZM142.408 273.348C142.581 272.926 142.218 272.413 141.818 272.308C141.338 272.181 140.953 272.473 140.778 272.898C140.315 274.026 139.655 275.06 138.805 275.934C138.046 276.715 139.241 277.911 140 277.13C141.065 276.034 141.83 274.755 142.408 273.348ZM150.709 246.208C151.479 245.437 150.284 244.242 149.514 245.013L147.323 247.204C146.553 247.975 147.748 249.17 148.519 248.399L150.709 246.208ZM173.181 242.636C174.756 243.098 176.593 243.522 177.667 244.866C177.719 244.932 177.807 244.848 177.776 244.782C176.401 241.932 172.459 240.932 169.73 239.933C167.8 239.227 165.819 238.641 163.822 238.117C164.022 235.838 163.471 233.395 163.28 231.127C163.075 228.705 162.909 226.277 162.824 223.848C162.736 221.37 162.715 218.875 162.797 216.396C162.878 213.927 163.198 211.487 163.339 209.026C163.352 208.788 163.021 208.776 162.95 208.973C162.12 211.257 161.766 213.787 161.496 216.196C161.218 218.677 161.126 221.151 161.161 223.646C161.198 226.212 161.347 228.771 161.552 231.329C161.649 232.541 161.761 233.752 161.867 234.963C161.949 235.888 161.986 236.805 162.175 237.7C160.97 237.404 159.763 237.124 158.559 236.852C154.721 235.986 150.867 235.182 147.045 234.245C145.169 233.786 143.32 233.235 141.452 232.746C139.694 232.285 137.838 231.727 136.032 231.521C135.388 231.448 135.306 232.33 135.732 232.629C137.2 233.66 139.149 234.377 140.844 234.954C142.545 235.533 144.313 235.95 146.057 236.379C149.693 237.273 153.364 238.005 157.029 238.767C160.689 239.528 164.356 240.283 167.974 241.222C169.717 241.674 171.454 242.128 173.181 242.636ZM181.811 197.402C182.752 197.954 183.602 196.493 182.664 195.942C181.437 195.221 180.13 194.68 178.812 194.152C177.8 193.747 177.365 195.383 178.362 195.783C179.547 196.257 180.709 196.755 181.811 197.402ZM185.218 260.218C186.162 260.766 187.012 259.304 186.071 258.758C184.75 257.992 183.303 257.481 181.934 256.811C180.96 256.333 180.104 257.792 181.081 258.271C182.45 258.941 183.897 259.452 185.218 260.218ZM186.751 224.561C185.839 225.428 184.621 225.836 183.473 226.291C182.472 226.688 182.911 228.323 183.923 227.922C185.353 227.354 186.81 226.836 187.946 225.756C188.737 225.005 187.539 223.811 186.751 224.561ZM176.659 176.135C175.656 176.529 176.095 178.163 177.108 177.766C178.231 177.325 179.392 176.989 180.515 176.548C181.518 176.155 181.079 174.52 180.066 174.918C178.942 175.359 177.782 175.694 176.659 176.135ZM158.854 156.901C157.789 156.721 157.335 158.35 158.405 158.531C159.733 158.755 161.04 159.018 162.299 159.505C163.316 159.899 163.752 158.263 162.748 157.875C161.489 157.387 160.182 157.125 158.854 156.901ZM152.972 203.732C153.949 203.252 153.091 201.794 152.119 202.272C151.094 202.776 150.032 203.166 148.913 203.404C147.848 203.631 148.302 205.261 149.363 205.035C150.621 204.766 151.819 204.299 152.972 203.732ZM147.416 177.352C146.363 177.064 145.918 178.696 146.966 178.983C148.809 179.488 150.707 179.751 152.564 180.2C153.622 180.457 154.07 178.826 153.013 178.57C151.157 178.12 149.259 177.858 147.416 177.352ZM123.845 169.074C122.775 169.272 123.231 170.902 124.294 170.705C125.426 170.495 126.573 170.492 127.721 170.491C128.81 170.491 128.808 168.8 127.721 168.801C126.417 168.801 125.13 168.837 123.845 169.074ZM46.9734 177.908C49.7346 177.643 52.5002 177.432 55.2699 177.274C55.399 177.267 55.5255 177.259 55.6546 177.252C55.6692 177.223 55.6882 177.195 55.7074 177.166C56.6114 175.838 57.2769 174.511 57.8537 173.01C58.4051 171.582 58.9396 170.109 59.7889 168.82C60.7575 167.351 62.0653 166.201 63.4985 165.205C64.3679 165.79 65.1747 166.475 65.9129 167.201C66.6897 167.964 67.8851 166.769 67.108 166.005C66.452 165.36 65.7519 164.764 65.0118 164.226C65.8664 163.706 66.7383 163.218 67.5889 162.733C70.7771 160.913 74.041 159.23 77.3727 157.692C78.9213 156.975 80.4889 156.339 82.0671 155.695C82.9166 155.348 83.7551 154.902 84.6044 154.501C84.5431 153.9 84.7227 153.228 85.1833 152.833C85.5234 152.543 85.7875 152.436 86.1931 152.231C86.284 152.199 86.3389 152.18 86.3642 152.169C86.3452 152.173 86.2903 152.19 86.1997 152.22C85.984 152.319 85.9671 152.29 86.1488 152.133C86.1593 151.791 86.8335 151.068 86.9875 150.715C87.5241 149.504 87.691 148.223 88.4833 147.12C89.5755 145.6 91.4093 145.026 93.1187 145.541C93.2959 143.713 93.3424 141.805 94.0311 140.173C94.0502 140.129 94.1114 140.11 94.1389 140.158C94.8572 141.382 94.9185 142.745 94.9734 144.157C95.0262 145.482 94.9757 146.837 94.8023 148.154C94.9121 148.238 95.0241 148.319 95.1403 148.397C95.6854 148.756 96.2727 149.033 96.8896 149.238C98.0642 149.627 99.2959 149.796 100.528 149.855C103.707 150.007 106.984 149.686 110.111 149.141C113.273 148.589 118.122 147.76 120.936 146.177C122.793 145.134 124.506 143.859 126.243 142.625C125.614 140.596 125.453 138.415 126.087 136.7C126.163 136.495 126.484 136.457 126.545 136.7C126.942 138.336 127.059 139.981 127.587 141.597C127.595 141.621 127.604 141.646 127.612 141.669C127.777 141.558 127.942 141.447 128.106 141.338C128.487 141.086 129.004 141.274 129.233 141.633C132.881 147.384 138.659 147.714 144.727 148.741C151.367 149.866 158.041 151.079 164.426 153.279C170.531 155.384 176.366 158.449 180.989 163.026C182.035 164.063 183.014 165.167 183.938 166.32C183.044 166.433 182.158 166.608 181.283 166.883C180.247 167.209 180.692 168.841 181.732 168.514C182.856 168.16 183.993 167.985 185.142 167.898C188.283 172.197 190.732 177.071 192.849 181.868C196.911 191.066 199.556 200.862 200.772 210.835C200.104 210.434 199.424 210.053 198.727 209.698C197.759 209.205 196.905 210.665 197.874 211.158C198.951 211.706 199.996 212.31 201.01 212.965C201.452 217.33 201.624 221.724 201.52 226.11C201.273 236.568 199.861 247.332 196.669 257.31C195.104 262.207 193.029 267.064 189.938 271.202C188.54 273.076 186.951 274.767 185.079 276.177C184.173 276.862 183.214 277.473 182.202 277.988C180.898 278.656 179.199 278.876 178.076 279.821C177.706 280.131 177.421 280.541 177.205 281.004C177.33 281.883 177.345 282.765 177.104 283.644C177.028 283.919 176.821 284.143 176.565 284.25C176.561 284.327 176.561 284.401 176.561 284.472C176.561 284.506 176.51 284.515 176.504 284.481C176.493 284.415 176.483 284.35 176.472 284.282C176.39 284.31 176.303 284.323 176.214 284.323C173.005 284.335 169.792 284.256 166.579 284.147C166.827 283.386 167.096 282.631 167.355 281.869C167.705 280.835 166.073 280.395 165.725 281.42C165.422 282.31 165.106 283.193 164.825 284.086C161.382 283.958 157.94 283.804 154.504 283.691C147.197 283.447 139.891 283.367 132.581 283.213C121.23 282.972 109.796 282.479 98.4264 282.961C98.0332 282.127 97.5931 281.311 97.1759 280.488C96.6836 279.516 95.2259 280.372 95.7164 281.341C96.0065 281.913 96.3069 282.478 96.5923 283.049C94.2897 283.169 91.9895 283.327 89.694 283.543C85.7771 283.91 81.898 284.563 77.9854 284.969C74.0074 285.383 70.1156 285.31 66.1692 284.652C65.4593 284.534 65.041 284.105 64.8678 283.572C64.8616 283.57 64.8572 283.566 64.8532 283.559C64.6504 283.323 64.46 283.126 64.2637 282.955C64.029 282.803 63.7755 282.674 63.4776 282.56C62.922 282.348 62.3431 282.219 61.7558 282.133C61.1093 282.036 60.4544 282.027 59.8079 281.947C59.263 281.877 58.7304 281.773 58.1982 281.647C57.241 281.419 56.3325 281.121 55.4283 280.725C54.6403 280.381 53.9285 279.886 53.2565 279.347C51.8663 278.331 50.6623 277.033 49.61 275.684C48.9973 274.896 48.4206 274.078 47.8966 273.227C46.9839 271.751 46.2065 270.219 45.4206 268.674C45.1354 268.216 44.8751 267.747 44.6372 267.269C46.1731 266.816 47.7238 266.447 49.3521 266.421C50.4405 266.403 50.4403 264.712 49.3521 264.73C47.4846 264.76 45.7182 265.196 43.9632 265.716C43.8777 265.489 43.7957 265.26 43.7199 265.028C43.5107 264.544 43.3375 264.048 43.1938 263.544C43.1095 263.316 43.0248 263.088 42.9403 262.86C42.7502 262.069 42.56 261.277 42.3678 260.484C41.9854 259.216 41.6835 257.929 41.4614 256.625C41.2755 255.767 41.1318 254.902 41.0347 254.027C40.7389 251.908 40.498 249.792 40.4811 247.649C40.5065 246.328 40.591 245.009 40.7346 243.697C40.7959 242.805 40.8994 241.917 41.0389 241.036C41.2206 239.725 41.4001 238.428 41.7023 237.134C41.9283 236.259 42.1544 235.384 42.3804 234.509C42.9445 232.685 43.61 230.897 44.3771 229.149C44.4192 229.04 44.6328 228.798 44.7614 228.796C44.8586 228.794 44.994 228.883 44.9497 229.002C44.9452 229.012 44.9412 229.025 44.9368 229.035C44.9811 228.936 45.0234 228.834 45.0677 228.735C45.1058 228.642 45.2537 228.456 45.3678 228.458C45.3741 228.458 45.3806 228.458 45.3889 228.46C45.3593 228.439 45.3318 228.412 45.3044 228.38C44.5459 227.482 44.0537 226.3 43.5107 225.26C43.0607 224.402 42.6361 223.498 42.5135 222.528C42.406 221.676 42.5516 220.837 43.0861 220.148C43.6945 219.364 44.8396 218.996 44.2037 217.863C43.4811 216.574 42.4185 215.456 43.4769 213.991C44.0156 213.245 44.8692 212.835 45.503 212.186C46.2318 211.436 46.5785 210.432 46.5593 209.407C46.5149 209.432 46.4558 209.42 46.4347 209.356C45.822 207.505 46.2656 205.472 46.8931 203.669C47.2354 202.691 47.9602 202.422 48.803 202.374C45.1525 195.241 41.7363 187.993 38.6917 180.579C38.5903 180.336 38.491 180.093 38.3919 179.85C38.2438 179.486 38.5565 179.002 38.9178 178.922C41.5502 178.345 44.2924 178.161 46.9734 177.908Z" fill="black"/>
<path fill-rule="evenodd" clip-rule="evenodd" d="M76.4649 85.4321C78.377 77.3684 82.5574 69.8641 89.2501 63.7994C109.39 43.8805 146.375 54.6921 146.207 84.7085C146.93 88.2144 147.223 91.8192 146.984 95.3946C146.885 96.9201 146.225 99.049 147.112 100.422C149.112 102.991 150.274 104.884 149.593 108.3C149.025 111.284 146.995 113.397 144.256 114.521C142.614 114.992 141.055 116.019 140.447 117.585C136.791 124.282 134.082 129.851 128.318 134.415C126.831 135.59 111.576 142.637 106.55 142.637C91.8345 142.637 73.2882 137.304 72.9804 120.861C72.9271 117.25 73.5607 113.596 73.9581 110.013C74.9255 101.837 74.5842 93.3637 76.4649 85.4321Z" fill="white"/>
<path fill-rule="evenodd" clip-rule="evenodd" d="M76.796 81.3988C76.7914 81.2991 76.6486 81.2767 76.6209 81.3752C76.0739 83.3164 75.764 85.294 75.3362 87.2655C74.9242 89.1645 74.5352 91.069 74.2116 92.9846C73.6008 96.6001 73.0861 100.225 72.6074 103.859L72.4885 104.768C71.6565 111.163 70.2824 117.825 71.4839 124.257C72.5092 129.746 75.9467 134.169 80.3768 137.412C84.5715 140.483 89.6574 142.454 94.7071 143.574C100.127 144.777 106.551 145.136 110.961 141.16C112.726 139.568 110.32 136.409 108.405 137.846C103.908 141.219 98.1868 140.224 93.1124 138.882L92.9588 138.841C88.5051 137.655 84.0218 135.856 80.486 132.821C76.5769 129.466 74.6441 124.81 74.4207 119.702C74.2954 116.833 74.5629 113.967 74.8513 111.115L74.8834 110.798C75.2145 107.536 75.5618 104.275 75.8823 101.012C76.1747 98.0365 76.427 95.0435 76.5604 92.0545L76.6226 90.547C76.7522 87.5075 76.9266 84.4237 76.796 81.3988ZM129.537 56.1442C122.22 52.3329 113.809 50.9688 105.665 52.2479C97.8363 53.4776 90.6511 57.519 85.2804 63.314C82.6584 66.1434 80.3311 69.4161 78.8437 72.9915C78.1049 74.7677 77.5265 76.6206 77.2185 78.5236C77.06 79.502 76.9043 80.5156 76.8745 81.5075C76.847 82.4258 77.1166 83.2871 77.0847 84.2206C77.0799 84.3666 77.3036 84.3947 77.3376 84.2548C77.592 83.2139 78.2049 82.4269 78.5894 81.4382C78.8768 80.6999 79.2028 79.9792 79.5346 79.2607L79.8198 78.645C80.6475 76.8555 81.6369 75.1395 82.6157 73.4297C84.5866 69.9859 87.1155 66.8563 90.0766 64.2154C95.2757 59.5788 101.946 56.5859 108.907 56.047C116.133 55.4873 123.462 57.2102 129.632 61.0268C135.803 64.8431 140.468 70.7758 142.891 77.6064C144.113 81.0533 144.788 84.6448 144.945 88.2965C145.024 90.145 144.95 92.0089 144.82 93.8537L144.756 94.7335C144.681 95.7885 144.629 96.8395 144.787 97.869C143.674 97.5217 142.507 97.3778 141.336 97.5496C139.596 97.8049 138.557 98.5184 137.777 100.074C137.736 100.155 137.818 100.236 137.899 100.196C138.91 99.6904 140.547 99.9563 141.619 100.221C142.734 100.497 143.738 100.976 144.686 101.624C146.439 102.822 147.813 104.679 148.15 106.809C148.476 108.867 147.631 110.95 146.213 112.425C145.483 113.185 144.61 113.841 143.633 114.251C142.447 114.747 141.273 114.732 140.224 115.552C139.576 116.059 139.732 116.927 140.172 117.49C137.959 119.918 135.996 122.574 133.783 125.012C132.757 126.141 131.739 127.273 130.756 128.439L130.389 128.878C129.407 130.063 127.846 131.315 127.397 132.805C127.118 133.732 128.111 134.945 129.114 134.523C130.653 133.874 131.752 132.188 132.792 130.894L132.859 130.81C133.95 129.47 134.918 128.054 135.803 126.571L136.094 126.083C137.695 123.39 139.282 120.597 140.303 117.638C140.37 117.707 140.442 117.771 140.517 117.824C141.987 118.87 144.125 118.066 145.593 117.387C146.98 116.745 148.251 115.781 149.241 114.618C151.396 112.09 152.389 108.816 151.669 105.535C151.06 102.755 149.134 100.052 146.61 98.6457C147.775 97.3036 148.257 95.4944 148.579 93.7256C148.988 91.4678 149.07 89.1539 148.959 86.8644C148.737 82.3041 147.564 77.8089 145.75 73.633C142.505 66.1611 136.769 59.9111 129.537 56.1442ZM144.939 106.004C143.403 105.716 141.972 105.647 140.49 106.297C138.884 107.002 137.753 108.167 136.701 109.532C135.505 111.085 138.571 112.781 139.344 110.72L139.366 110.656C139.574 110.046 139.944 109.456 140.414 108.913C140.555 109.129 140.743 109.319 140.965 109.428C141.233 109.56 141.642 109.469 141.707 109.126C141.778 108.746 141.699 108.285 141.48 107.963L141.45 107.92C142.515 107.062 143.797 106.435 144.939 106.233C145.053 106.213 145.052 106.025 144.939 106.004Z" fill="black"/>
<path fill-rule="evenodd" clip-rule="evenodd" d="M107.888 117.319C107.844 117.278 107.774 117.263 107.72 117.297C106.806 117.875 106.698 119.82 106.687 120.943C106.309 121.041 105.936 121.153 105.583 121.232C104.832 121.398 104.078 121.542 103.325 121.695L102.761 121.812C100.876 122.209 98.9544 122.503 97.0328 122.651C95.1677 122.793 93.2485 122.846 91.3887 122.605C90.5902 122.502 89.7962 122.33 89.0244 122.099C88.1122 121.827 87.3856 121.376 86.5372 120.981C84.4131 119.991 82.633 122.891 84.6772 124.164C86.432 125.256 88.8261 125.65 90.8517 125.819C92.9221 125.992 94.9845 125.802 97.03 125.474C99.2413 125.12 101.407 124.576 103.505 123.787C104.391 123.453 105.249 123.048 106.087 122.606L106.315 122.485C106.455 122.41 106.6 122.334 106.746 122.257C106.903 123.658 107.355 125.011 107.902 126.311L107.915 126.288C108.213 127.314 109.293 127.949 110.368 127.496C111.629 126.964 111.725 125.569 110.991 124.578L110.956 124.532C110.093 123.422 109.553 122.044 109.083 120.731C108.842 120.058 108.619 119.369 108.425 118.68C108.285 118.182 108.28 117.681 107.888 117.319ZM75.3884 106.165C76.1359 108.425 77.7663 110.166 80.0375 110.931C82.2883 111.689 84.7917 111.413 87.0925 111.003C87.5958 110.913 88.106 110.814 88.6152 110.699C88.1985 110.957 87.8303 111.32 87.4781 111.705C86.9572 112.273 86.4848 112.872 86.3415 113.583C86.1993 114.289 86.4233 114.826 86.8319 115.231C87.4604 115.854 88.4742 116.19 89.3329 116.376C91.2557 116.791 93.182 116.727 95.0954 116.3C95.5839 116.192 95.9152 115.93 96.1012 115.588C96.3271 115.173 96.3456 114.656 96.216 114.186C96.0865 113.716 95.8065 113.283 95.4002 113.043C95.0658 112.845 94.6475 112.791 94.1728 112.949C93.2199 113.266 92.2739 113.476 91.2674 113.501C90.8414 113.511 90.4126 113.498 89.9873 113.459C89.7468 113.437 89.5067 113.406 89.2681 113.368C89.4087 113.181 89.5452 112.99 89.6786 112.797C89.8362 112.57 89.9898 112.339 90.1363 112.104C90.5601 111.425 90.9131 110.727 91.2232 109.99C91.3227 109.754 91.4149 109.517 91.5035 109.279C91.5162 109.245 91.5289 109.211 91.5416 109.176C91.569 109.154 91.5961 109.131 91.623 109.107C92.2296 108.582 92.7381 107.936 93.0979 107.135C94.0718 104.965 93.9132 102.272 93.3222 100.019C92.8487 98.213 91.8033 96.5427 90.4222 95.408C90.181 95.0111 90.0218 94.7703 89.8267 94.5676C89.033 93.7414 87.9254 93.1843 86.8446 92.8454C84.4305 92.0881 81.8014 92.6314 79.7551 94.0732C77.8656 95.4046 76.3865 97.4012 75.5872 99.6218C74.8302 101.725 74.6825 104.032 75.3884 106.165ZM108.27 92.4301C105.399 92.4056 102.478 93.2535 100.149 94.9504C97.9197 96.5743 96.1699 98.9716 96.172 101.827C96.1742 104.607 97.6598 107.341 99.3075 109.494C101.157 111.91 103.574 113.075 106.613 113.102C108.192 113.116 109.783 112.976 111.352 112.784L112.193 112.678C113.352 112.529 114.522 112.352 115.621 111.953C120.848 110.056 121.01 103.211 119.074 98.8357C117.579 95.4575 113.796 92.1629 110.023 92.5584C109.454 92.4787 108.871 92.4354 108.27 92.4301ZM103.421 95.6492C107.016 94.0349 111.385 94.5182 114.872 96.241C116.253 97.7487 117.263 99.649 117.672 101.393C118.108 103.256 118.044 105.262 117.388 107.067C116.587 109.27 114.615 109.816 112.488 110.154L111.662 110.284L111.315 110.336C109.225 110.648 106.939 110.891 104.93 110.501C102.691 110.065 101.27 108.256 100.15 106.4L100.098 106.313C98.9361 104.37 97.9632 102.006 98.938 99.7785C99.7668 97.8855 101.577 96.4772 103.421 95.6492ZM82.2014 96.2117C83.4352 95.5277 84.8425 95.4035 86.1747 95.8612C86.7479 96.0582 87.2432 96.3774 87.7235 96.7352L87.9149 96.8802C88.5055 97.3337 89.0571 97.5634 89.5002 98.1758L89.5573 98.258C89.7808 98.5919 90.1719 98.7255 90.5281 98.6811C90.9432 99.826 91.1146 101.064 91.118 102.283L91.1177 102.444L91.1156 102.609C91.089 104.05 90.8377 105.812 89.7046 106.778C88.671 107.658 87.1061 107.87 85.7089 107.992L84.6321 108.082L84.346 108.104C82.8733 108.206 81.2596 108.171 80.0254 107.299C78.9504 106.54 78.4434 105.25 78.312 103.978C78.0012 100.97 79.5228 97.6964 82.2014 96.2117ZM109.057 96.4895C107.078 95.4784 104.699 95.7318 103.022 96.999C103.171 97.0282 103.318 97.0654 103.464 97.1387C103.845 97.3296 104.081 97.7117 104.171 98.1184C104.272 98.578 104.034 99.0132 103.581 99.1582C103.186 99.2842 102.718 99.3419 102.351 99.102C102.159 98.9764 102.025 98.811 101.937 98.6026L101.925 98.5719L101.909 98.5494L101.903 98.5389C101.902 98.5349 101.909 98.5425 101.92 98.5597C101.909 98.5337 101.898 98.5077 101.888 98.4812C101.872 98.4498 101.858 98.4181 101.846 98.3853C101.824 98.3669 101.805 98.3464 101.785 98.3259C101.481 98.7949 101.241 99.3245 101.089 99.9138C100.115 103.696 104.112 107.621 107.683 108.014C109.033 108.162 110.263 107.84 111.284 107.207C111.275 107.194 111.265 107.183 111.256 107.17C110.846 107.244 110.356 107.06 110.207 106.602C109.827 105.435 110.217 104.069 111.489 103.687C112.307 103.442 113.145 103.713 113.73 104.273C114.172 103.189 114.33 101.97 114.121 100.749C113.826 99.0255 112.787 97.4727 111.17 96.7558C110.382 96.4064 109.704 96.3331 109.057 96.4895ZM88.2081 98.823L88.1478 98.728C87.5361 97.7862 86.3666 96.6308 85.1547 96.9485C84.9844 96.9931 84.8175 97.0649 84.6671 97.1581C84.0011 97.0677 83.304 97.219 82.7314 97.5713L82.747 97.6109C82.7495 97.6175 82.7517 97.6242 82.7534 97.6312C82.8056 97.8603 82.7752 98.072 82.6683 98.2825C82.5523 98.5106 82.3868 98.7268 82.1629 98.8576C82.0093 98.9472 81.8287 98.9944 81.6516 98.9908C81.392 98.9861 81.1634 98.8718 80.9758 98.6972C80.8737 98.6025 80.8025 98.4637 80.7632 98.3208C80.6707 98.4096 80.5809 98.5085 80.4954 98.6207C79.0902 100.469 79.2844 103.439 80.9329 105.087C80.9995 105.154 81.0702 105.214 81.1402 105.275C81.8094 106.197 82.8411 106.822 84.0802 106.949C85.2273 107.066 86.3745 106.727 87.2542 106.031C87.1835 105.993 87.1173 105.944 87.0603 105.88C86.9101 105.71 86.7865 105.542 86.6952 105.334C86.6723 105.282 86.6502 105.229 86.6292 105.176L86.5987 105.096C86.5934 105.081 86.5465 104.946 86.559 104.97L86.5619 104.975L86.5453 104.936C86.3878 104.543 86.4514 104.094 86.8251 103.847L86.8663 103.821C86.9885 103.75 87.1397 103.717 87.2929 103.716C87.6744 103.249 88.2423 103.142 88.7754 103.278L88.7941 103.127C88.7969 103.102 88.7994 103.077 88.8011 103.052C89.2142 101.682 89.0149 100.125 88.2081 98.823ZM106.545 85.0323L106.408 85.011C105.371 84.8611 104.666 85.0337 103.992 85.9202C103.671 86.3427 103.77 86.9808 103.992 87.4126C104.71 88.8077 106.685 88.5192 108.015 88.7963C109.314 89.0666 110.609 89.4346 111.824 89.9701C113.064 90.5167 114.228 91.1632 115.363 91.9014C116.39 92.5695 117.321 93.5736 118.493 93.9623C118.546 93.9799 118.61 93.9325 118.607 93.8765C118.523 92.5423 117.409 91.3175 116.546 90.3673C115.548 89.2684 114.334 88.2928 113.07 87.5172C111.766 86.717 110.356 86.0582 108.896 85.5988C108.127 85.3568 107.341 85.1644 106.545 85.0323ZM90.7476 86.844C89.442 84.934 86.1963 85.3003 84.2812 85.8107C81.8799 86.4503 79.2779 87.7439 77.5941 89.6165C76.0859 91.294 78.3424 93.4734 80.0385 92.0618L80.4911 91.6863L80.7808 91.4483C82.0828 90.3845 83.3722 89.4217 84.9589 88.7123C86.8193 87.8811 88.7045 87.4761 90.6707 87.0332C90.7481 87.0158 90.7935 86.911 90.7476 86.844Z" fill="black"/>
<path fill-rule="evenodd" clip-rule="evenodd" d="M110.551 129.599C108.841 125.59 105.107 122.644 100.809 121.566C97.6529 120.777 94.3404 120.803 91.1228 121.116C89.4371 121.279 87.6289 121.412 86.0402 122.038C84.6835 122.574 83.5779 123.585 82.7466 124.772C81.7571 126.179 81.0841 127.789 80.6115 129.439C80.5444 129.674 80.4813 129.91 80.4224 130.148C80.6279 131.393 81.0642 132.453 82.2171 133.236C83.3421 134 84.6844 134.313 86.0224 134.424C86.1537 134.361 86.2805 134.296 86.3967 134.229C88.4819 133.035 89.9495 130.213 92.5814 130.595C94.9301 130.936 96.4762 133.893 97.873 135.626C102.356 136.149 106.837 134.801 110.485 132.236C110.67 131.359 110.681 130.473 110.551 129.599ZM77.3751 126.558C77.7338 125.551 78.1855 124.575 78.721 123.657C80.4912 120.619 83.2087 118.198 86.4347 116.814C94.0661 113.546 103.94 115.85 110.103 121.211C112.208 123.044 114.337 125.737 114.981 128.634C115.173 128.672 115.355 128.772 115.504 128.913C119.957 126.108 124.542 123.41 128.13 119.523C130.736 116.698 132.548 113.355 133.658 109.682C133.749 109.38 134.236 109.424 134.221 109.759C134.217 109.837 134.213 109.915 134.209 109.993C134.255 109.849 134.474 109.923 134.491 110.063C135.088 114.525 135.835 119.256 135.147 123.741C134.736 126.418 133.521 128.377 131.896 130.493C130.155 132.761 128.185 134.87 126.17 136.893C124.891 138.177 123.556 139.658 121.99 140.6C120.169 141.694 118.104 142.525 116.161 143.369C114.184 144.23 112.177 145.026 110.133 145.716C106.046 147.099 101.822 148.056 97.5242 148.475C94.083 148.809 90.1502 149.173 86.8525 147.878C84.3248 146.886 82.2846 145.092 80.6663 142.934C78.9046 140.583 77.5118 137.905 76.7419 135.082C75.9419 132.149 77.2065 127.03 77.3751 126.558Z" fill="black"/>
</svg>
