<svg width="240" height="324" viewBox="0 0 240 324" fill="none" xmlns="http://www.w3.org/2000/svg">
<path fill-rule="evenodd" clip-rule="evenodd" d="M198.915 260.27C199.548 266.071 200.98 272.461 198.249 277.934C199.969 278.011 198.574 278.509 197.646 278.68C197.116 279.09 196.403 279.253 195.733 279.196C192.255 279.931 188.664 280.198 185.132 280.614C141.037 284.278 96.6461 283.305 52.4684 281.726C51.0316 281.664 50.0676 280.62 49.9575 279.213C48.3383 258.518 47.5325 237.758 47.5737 216.999C48.2931 209.703 42.7814 212.55 45.7216 202.937C48.0852 192.798 51.5836 182.928 56.0447 173.524C59.1284 167.404 62.034 160.965 66.734 155.89C68.2192 155.685 69.4837 154.209 70.7388 153.385C72.01 153.137 72.9523 152.057 74.2406 151.725C76.6957 151.087 82.1899 149.728 84.2809 151.362C84.3635 151.339 84.4471 151.32 84.5297 151.297C84.939 151.751 85.5011 151.41 85.8064 151.002C86.8511 150.191 91.4176 150.107 91.9358 148.862C94.6375 146.41 95.3603 141.251 95.3603 138.232C96.3706 137.096 96.4406 137.307 97.8119 136.707C99.1564 135.011 100.781 133.533 102.594 132.368C112.796 125.666 127.601 132.728 129.989 144.376C133.765 147.367 137.651 150.405 142.276 151.963C144.532 150.802 147.103 150.431 149.498 150.429C151.284 150.364 153.751 149.331 154.911 151.211C174.432 157.603 186.213 176.196 194.59 193.813C195.764 196.321 197.169 198.947 196.81 201.805C196.563 205.227 192.85 207.264 193.551 210.891C194.571 220.868 195.731 230.835 196.793 240.809C197.5 247.296 198.208 253.783 198.915 260.27Z" fill="white"/>
<path fill-rule="evenodd" clip-rule="evenodd" d="M56.1089 212.676C57.371 213.133 59.1402 213.578 60.0427 214.611C60.1467 213.649 60.2519 212.686 60.3575 211.724C57.7129 211.661 55.0625 211.638 52.4164 211.564C53.6654 211.87 54.8998 212.238 56.1089 212.676ZM61.9194 273.216C62.8296 273.225 63.7427 273.288 64.6522 273.324C66.404 273.392 68.1558 273.459 69.9079 273.524C73.4819 273.658 77.0559 273.787 80.6303 273.912C87.7086 274.158 94.7878 274.385 101.868 274.594C116.027 275.011 130.194 275.263 144.351 275.739C148.279 275.871 152.206 275.974 156.13 276.188C158.164 276.299 160.207 276.394 162.23 276.63C163.938 276.828 165.621 277.164 167.318 277.413C167.204 275.2 167.098 272.987 166.987 270.774C166.882 268.68 166.784 266.587 166.686 264.492C160.059 264.839 153.424 264.979 146.788 265.039C139.768 265.101 132.751 265.276 125.731 265.289C111.834 265.317 97.9348 265.142 84.0379 265.002C80.1075 264.963 76.1766 264.923 72.246 264.884C70.2808 264.864 68.3153 264.844 66.3501 264.824C65.369 264.815 64.3822 264.835 63.4021 264.795C62.3559 264.751 61.7206 264.454 60.9613 263.75C60.5563 263.374 60.5394 262.609 60.9613 262.237C61.5706 261.698 62.1362 261.285 62.9808 261.225C63.8103 261.165 64.6758 261.247 65.5078 261.258C67.3327 261.282 69.1577 261.306 70.9826 261.33C74.4922 261.376 78.0015 261.422 81.5111 261.468C88.5303 261.561 95.5494 261.655 102.568 261.762C109.447 261.867 116.327 261.946 123.204 262.118C130.226 262.295 137.241 262.615 144.261 262.84C151.734 263.08 159.203 263.367 166.659 263.928C166.48 260.047 166.315 256.164 166.16 252.282C151.355 253.088 136.541 253.662 121.711 253.687C106.262 253.713 90.813 253.449 75.3691 253.046C73.1929 252.989 71.0166 252.931 68.8408 252.863C67.7177 252.828 66.5946 252.795 65.4715 252.755C64.6458 252.725 63.7974 252.689 63.051 252.294C61.578 251.515 61.3239 249.239 63.0715 248.616C64.0268 248.276 65.0403 248.608 65.2727 249.47C65.3441 249.477 65.4121 249.483 65.4715 249.485C66.3138 249.517 67.1563 249.54 67.9984 249.567C69.8236 249.625 71.6485 249.684 73.4736 249.742C76.8432 249.847 80.2129 249.944 83.5828 250.034C90.4629 250.216 97.3439 250.365 104.226 250.479C117.85 250.706 131.474 250.916 145.097 251.228C152.112 251.388 159.125 251.597 166.14 251.774C165.972 247.554 165.814 243.334 165.671 239.113C165.655 238.618 165.637 238.123 165.619 237.628C164.613 237.849 163.584 237.972 162.56 238.117C160.783 238.368 159.001 238.555 157.216 238.743C153.854 239.098 150.48 239.315 147.105 239.502C140.224 239.881 133.342 240.149 126.454 240.359C112.828 240.774 99.1862 240.865 85.5554 240.818C78.1536 240.793 70.7069 240.89 63.3087 240.567C62.8528 240.692 62.3829 240.679 61.9285 240.531C61.5554 247.129 61.1614 253.726 60.7741 260.323C60.5128 264.775 60.2823 269.241 59.9614 273.694C60.5882 273.385 61.1652 273.21 61.9194 273.216ZM190.187 206.181C191.485 205.545 192.916 204.966 194.062 204.066C195.315 203.082 195.622 201.926 195.238 200.382C195.209 200.267 195.175 200.152 195.145 200.037C185.914 200.06 176.707 199.653 167.481 199.434C158.107 199.212 148.736 199.025 139.36 198.972C120.66 198.867 101.963 199.288 83.2727 199.814C76.5415 200.003 69.8105 200.189 63.0791 200.373C63.2327 202.015 63.1735 203.697 63.2084 205.327C63.239 206.759 63.231 208.193 63.2096 209.627C66.731 209.618 70.2516 209.542 73.7734 209.502C82.4922 209.404 91.2064 209.654 99.9231 209.854C117.356 210.253 134.793 210.567 152.223 211.092C156.956 211.234 161.721 211.309 166.476 211.512C166.64 210.739 166.821 209.969 167.026 209.204C167.351 207.989 167.719 206.741 168.692 205.897C168.738 205.856 168.803 205.874 168.824 205.932C169.193 206.956 169.1 207.999 168.992 209.072C168.906 209.92 168.848 210.771 168.805 211.622C171.763 211.778 174.714 211.996 177.649 212.324C178.488 211.909 179.328 211.495 180.169 211.083C183.508 209.448 186.848 207.815 190.187 206.181ZM83.0253 236.685C89.9124 236.74 96.7999 236.746 103.687 236.702C117.319 236.614 130.947 236.279 144.577 236.008C148.37 235.933 152.158 235.858 155.952 235.858C157.916 235.858 159.887 235.871 161.849 235.956C163.084 236.01 164.336 236.018 165.565 236.166C165.417 232.194 165.262 228.218 165.267 224.243C152.265 226.213 139.122 226.754 125.991 227.142C112.688 227.535 99.3814 227.738 86.0724 227.758C82.2901 227.763 78.5077 227.755 74.7256 227.733C72.9047 227.722 71.0836 227.708 69.2626 227.691C68.2838 227.682 67.2991 227.701 66.3212 227.66C65.287 227.617 64.6623 227.372 63.94 226.636C63.5703 226.259 63.5515 225.61 63.94 225.235C65.2294 223.99 66.7463 224.26 68.4222 224.281C70.1031 224.302 71.7839 224.32 73.465 224.335C76.8267 224.366 80.1888 224.385 83.5509 224.394C90.1346 224.411 96.7186 224.385 103.302 224.318C116.608 224.182 129.91 223.886 143.213 223.574C150.567 223.402 157.92 223.45 165.268 223.806C165.271 223.146 165.277 222.486 165.29 221.827C165.338 219.328 165.582 216.829 165.962 214.357C162.361 214.345 158.76 214.268 155.175 214.222C146.458 214.11 137.742 213.934 129.025 213.759C120.379 213.586 111.733 213.413 103.086 213.239C94.4455 213.066 85.7781 213.053 77.1476 212.587C72.49 212.335 67.8307 211.992 63.1695 211.812C63.1604 212.24 63.1513 212.669 63.1422 213.096C63.03 218.347 62.8249 223.593 62.5602 228.839C62.433 231.359 62.2988 233.879 62.1609 236.399C62.2276 236.393 62.2959 236.389 62.366 236.388C69.2477 236.343 76.1424 236.629 83.0253 236.685ZM192.005 191.081C191.216 189.052 190.36 187.036 189.434 185.048C185.504 186.157 181.311 186.73 177.255 187.111C172.936 187.517 168.61 187.745 164.274 187.834C155.725 188.008 147.177 187.603 138.638 187.25C121.074 186.524 103.511 185.994 85.931 185.96C81.0214 185.95 76.112 185.973 71.2027 186.029C68.7482 186.056 66.2937 186.09 63.8394 186.132C62.5771 186.153 61.315 186.177 60.0527 186.203C59.4939 186.215 58.9283 186.256 58.3699 186.239C57.6231 186.217 57.0776 185.992 56.3844 185.722C55.5886 185.412 55.1191 184.08 56.1123 183.639C57.1044 183.199 57.9005 182.94 59.001 182.916C60.1929 182.891 61.3851 182.867 62.5771 182.845C64.751 182.805 66.925 182.772 69.0989 182.745C73.517 182.69 77.9356 182.667 82.3541 182.667C91.0509 182.668 99.7477 182.771 108.442 182.976C125.897 183.386 143.313 184.604 160.761 185.126C165.571 185.27 170.389 185.298 175.199 185.154C179.857 185.014 184.506 184.622 189.158 184.457C187.551 181.067 185.733 177.767 183.681 174.628C175.925 174.901 168.185 174.699 160.427 174.463C156.356 174.339 152.285 174.213 148.215 174.074C146.179 174.004 144.144 173.934 142.109 173.864C141.126 173.831 140.144 173.797 139.161 173.763C138.103 173.727 136.989 173.796 135.96 173.517C135.774 173.467 135.626 173.359 135.515 173.222C132.779 174.63 129.885 175.741 126.909 176.564C120.448 178.351 113.5 179.021 106.819 178.471C101.457 178.03 96.1133 176.702 91.3991 174.103C80.7527 175.083 69.9571 174.622 59.2881 174.553C58.2687 174.546 57.8447 173.612 58.0152 172.841C54.5912 180.223 52.323 188.226 50.2 196.01C48.8808 200.848 47.7074 205.715 46.5905 210.601C46.6369 210.605 46.6832 210.609 46.7295 210.613C46.6 210.078 46.8911 209.447 47.6236 209.43C51.9415 209.331 56.2733 209.579 60.5929 209.619C60.7143 208.539 60.8358 207.458 60.9639 206.377C61.1388 204.905 61.3471 203.437 61.5252 201.965C61.5896 201.432 61.6496 200.916 61.7229 200.41C58.3029 200.503 54.8831 200.597 51.4632 200.687C49.2436 200.746 49.2476 197.307 51.4632 197.239C70.2567 196.664 89.051 196.082 107.851 195.763C126.662 195.443 145.538 195.246 164.335 196.211C174.579 196.737 184.796 197.439 194.912 199.173C194.127 196.43 193.031 193.722 192.005 191.081ZM176.008 164.953C175.667 165.208 175.558 165.369 175.05 165.458C174.498 165.555 173.931 165.586 173.374 165.64C172.182 165.757 170.988 165.801 169.792 165.857C167.405 165.971 165.018 166.091 162.629 166.163C157.886 166.307 153.043 166.511 148.302 166.3C147.143 166.249 146.615 165.292 146.721 164.421C145.832 165.522 144.859 166.556 143.824 167.499C142.16 169.014 140.363 170.357 138.469 171.542C139.698 171.587 140.949 171.741 142.109 171.791C144.074 171.875 146.039 171.96 148.004 172.044C152.146 172.222 156.287 172.413 160.427 172.607C168.09 172.965 175.728 173.411 183.362 174.142C181.181 170.864 178.739 167.772 176.008 164.953ZM51.2817 180.874C54.5196 171.983 58.694 162.747 66.2063 156.641C70.0676 153.502 74.3694 151.33 79.2412 150.302C79.3908 150.27 79.4504 150.483 79.3044 150.531C70.8795 153.296 64.6448 160.613 60.4272 168.111C59.6631 169.47 58.9549 170.861 58.2852 172.273C58.5032 172.007 58.8368 171.83 59.2881 171.838C69.2506 172.005 79.3304 171.837 89.2706 172.81C89.0168 172.641 88.7631 172.472 88.5142 172.295C85.7988 170.359 83.3555 167.99 81.3358 165.307C80.1193 165.615 78.8386 165.691 77.5974 165.809C75.9408 165.966 74.2729 166.038 72.611 166.128C70.9517 166.217 69.2861 166.225 67.6249 166.265C66.4832 166.293 64.2516 166.483 64.2503 164.736C64.2491 162.987 66.483 163.172 67.6249 163.195C69.2863 163.227 70.9511 163.232 72.611 163.31C74.2023 163.385 75.8031 163.445 77.3897 163.587C78.3575 163.674 79.3532 163.731 80.3263 163.885C78.7429 161.522 77.4822 158.947 76.6408 156.232C76.5561 155.958 76.5282 155.703 76.5421 155.467C76.1851 155.09 75.9573 154.573 75.9573 154.1C75.9573 152.976 76.8334 152.317 77.8575 152.199C81.9104 151.736 86.3758 151.075 89.642 148.41C91.116 147.207 92.3016 145.784 93.4175 144.254C94.6714 142.534 95.1415 140.367 95.1463 138.261C95.1465 138.143 95.3424 138.107 95.3603 138.232C95.9741 142.501 95.0889 147.374 92.0261 150.573C89.0189 153.713 84.9341 154.89 80.7888 155.577C82.4979 160.461 85.319 164.75 89.2796 168.124C93.693 171.883 99.2798 173.893 104.976 174.652C111.12 175.47 117.561 175.072 123.604 173.736C129.425 172.449 135.12 170.146 139.858 166.472C142.248 164.618 144.447 162.432 146.363 160.094C147.944 158.163 149.156 156.011 150.514 153.943C145.45 155.332 139.327 153.434 135.085 150.754C132.586 149.176 130.397 147.205 128.599 144.861C127.712 143.705 126.923 142.484 126.272 141.179C125.934 140.5 125.629 139.802 125.349 139.097C125.176 138.661 125.007 138.214 125.007 137.736C125.008 137.383 125.096 137.055 125.273 136.75C125.636 136.365 125.708 136.253 125.49 136.415C125.846 135.685 126.877 135.499 127.536 135.878C127.781 136.02 128.359 136.293 128.643 136.75C128.835 137.059 128.939 137.429 129.062 137.768C129.256 138.303 129.452 138.832 129.695 139.347C130.262 140.544 130.941 141.687 131.715 142.761C133.131 144.724 134.95 146.499 136.933 147.884C139.013 149.338 141.256 150.527 143.688 151.27C146.257 152.054 148.8 152.288 151.451 152.575C151.479 152.536 151.506 152.496 151.535 152.457C151.586 152.387 151.696 152.409 151.701 152.502C151.703 152.547 151.702 152.591 151.703 152.635C152.081 152.812 152.112 153.345 151.691 153.55C151.535 156.003 150.477 158.418 149.324 160.541C148.844 161.425 148.301 162.281 147.714 163.109C147.888 163.042 148.083 163 148.302 162.992C153.044 162.81 157.887 163.044 162.629 163.218C164.948 163.303 167.264 163.433 169.582 163.557C170.776 163.621 171.973 163.662 173.163 163.785C173.758 163.847 174.357 163.896 174.949 163.985C174.992 163.992 175.032 163.998 175.069 164.005C173.605 162.562 172.061 161.195 170.432 159.92C165.085 155.736 158.945 152.327 152.394 150.473C152.331 150.456 152.34 150.35 152.409 150.357C165.44 151.69 176.294 159.904 183.887 170.218C188.1 175.942 191.295 182.277 194.045 188.81C195.431 192.103 196.742 195.455 197.841 198.856C198.399 200.585 198.65 202.418 197.851 204.114C197.238 205.415 196.106 206.382 194.921 207.15C194.842 207.201 194.761 207.249 194.681 207.299C195.893 211.524 196.705 215.859 197.485 220.181C198.331 224.876 199.069 229.591 199.704 234.32C200.971 243.771 201.942 253.243 202.366 262.773C202.483 265.408 202.562 268.046 202.596 270.684C202.613 272.004 202.606 273.324 202.588 274.643C202.567 276.12 202.767 277.786 202.015 279.104C201.011 280.865 199.061 280.259 198.203 279.055C198.191 279.071 198.178 279.088 198.165 279.104C198.088 278.951 198.022 278.799 197.967 278.646C197.875 278.443 197.814 278.231 197.792 278.014C197.631 277.196 197.692 276.366 197.698 275.477C197.708 274.227 197.7 272.976 197.697 271.726C197.69 269.365 197.663 267.006 197.596 264.646C197.461 259.927 197.199 255.212 196.839 250.505C196.125 241.155 195.072 231.848 194.17 222.516C193.711 217.765 193.158 213.001 193.062 208.224C191.95 208.811 190.801 209.342 189.691 209.907C187.63 210.957 185.569 212.006 183.509 213.055C181.511 214.073 179.509 215.084 177.507 216.095C175.488 217.114 173.483 218.461 171.212 218.711C169.997 218.845 169.558 217.209 170.273 216.445C171.208 215.447 172.448 214.827 173.695 214.246C172.038 214.307 170.379 214.339 168.719 214.352C168.696 216.442 168.77 218.535 168.875 220.62C169.133 225.734 169.491 230.838 169.83 235.946C170.535 246.565 171.218 257.19 171.751 267.819C171.881 270.422 172.012 273.025 172.142 275.629C172.206 276.894 172.294 278.161 172.33 279.428C172.37 280.849 172.335 282.63 171.02 283.508C170.091 284.127 169.092 283.835 168.395 282.983C167.462 281.844 167.464 280.193 167.389 278.795C167.372 278.472 167.356 278.148 167.339 277.825C165.915 278.01 164.502 278.265 163.072 278.404C161.325 278.575 159.567 278.675 157.813 278.72C154.236 278.812 150.664 278.845 147.085 278.845C140.004 278.846 132.923 278.724 125.842 278.61C111.68 278.381 97.5203 277.985 83.3635 277.545C79.4388 277.423 75.5143 277.295 71.5898 277.162C69.5576 277.093 67.5254 277.022 65.493 276.95C63.5694 276.881 61.4679 277.13 59.7748 276.131C59.7258 276.739 59.676 277.347 59.6225 277.955C59.5209 279.106 58.7119 280.095 57.4834 280.095C56.3291 280.095 55.3369 279.116 55.3443 277.955C55.7755 267.454 56.7087 256.953 57.4479 246.47C58.1267 236.842 58.7631 227.2 59.7339 217.594C59.4584 217.772 59.1218 217.882 58.7248 217.884C57.4566 217.889 56.1907 217.102 55.0042 216.684C53.807 216.262 52.5901 215.897 51.3567 215.598C50.6265 215.42 49.8934 215.272 49.158 215.145C49.2469 216.648 49.2241 218.164 49.252 219.662C49.2949 221.964 49.3663 224.265 49.4223 226.566C49.5324 231.1 49.5715 235.635 49.6581 240.17C49.8326 249.312 50.1199 258.448 50.6084 267.579C50.7425 270.088 50.8934 272.596 51.0609 275.103C51.1492 276.426 51.2422 277.749 51.34 279.071C51.4357 280.371 51.6596 281.752 51.1705 282.998C51.1549 282.989 51.1395 282.98 51.1241 282.971C50.7829 284.045 49.2831 284.559 48.5745 283.338C47.4702 281.434 47.7248 278.706 47.598 276.565C47.4617 274.267 47.3396 271.969 47.2315 269.67C47.0151 265.07 46.8651 260.47 46.7781 255.866C46.604 246.657 46.6336 237.435 47.1964 228.24C47.3504 225.726 47.5659 223.216 47.7871 220.708C47.9529 218.827 48.0444 216.895 48.3377 215.013C46.9036 214.802 45.4583 214.679 43.9991 214.643C42.5867 214.608 41.676 213.333 41.9753 211.985C44.3198 201.421 47.5813 191.036 51.2817 180.874Z" fill="black"/>
<path fill-rule="evenodd" clip-rule="evenodd" d="M63.4074 92.0542C65.3408 81.5081 70.1078 71.4734 77.4289 63.6219C78.2737 62.6896 79.0328 61.2191 80.322 60.984C81.616 58.3462 84.0825 56.4814 86.0543 54.3512C90.358 50.0585 94.4756 45.2615 100.027 42.5507C125.774 31.9574 150.55 62.1627 155.808 84.8789C161.031 103.147 155.327 128.348 132.695 129.088C129.494 133.324 125.076 136.256 120.537 138.875C114.34 142.845 107.579 144.456 100.409 142.247C93.2686 144.114 85.8665 138.124 81.5752 132.87C78.1833 128.801 75.8585 123.835 72.756 119.623C69.0933 119.531 65.9281 116.429 65.4377 112.792C62.0167 106.503 62.1722 98.9666 63.4074 92.0542Z" fill="white"/>
<path fill-rule="evenodd" clip-rule="evenodd" d="M119.49 38.9614C114.805 37.8664 109.892 38.0934 105.251 39.2968C96.0538 41.6823 88.486 47.8857 82.2111 54.8021C76.0905 61.5484 71.0431 69.2822 67.3567 77.6134L67.1699 78.0372C64.5624 83.976 62.2964 90.1489 62.1992 96.6882C62.1156 102.316 62.6839 108.179 64.5014 113.533C66.1206 118.301 69.0988 123.107 74.2227 124.25C77.1773 131.763 82.9576 138.269 90.2389 141.75C94.7549 143.91 99.7144 144.874 104.708 144.394C109.802 143.906 114.56 141.457 118.542 138.334C118.651 138.249 118.51 138.083 118.398 138.147C113.604 140.911 107.935 141.899 102.445 141.717C93.4218 141.419 85.1501 136.547 80.397 128.889C79.2143 126.983 78.1605 124.973 77.3199 122.881C77.3691 122.709 77.3976 122.535 77.3976 122.365C77.3976 121.644 77.0558 121.094 76.5458 120.738C76.3094 119.999 76.1002 119.251 75.9255 118.495C75.5294 116.783 75.3084 115.046 75.1751 113.295C75.0669 111.872 75.1269 110.363 74.9841 108.904C75.0361 107.735 75.1083 106.567 75.2142 105.402C75.5549 101.647 76.2441 97.9007 77.5715 94.3614C78.9162 90.7765 81.0399 87.6151 83.7192 84.894C89.466 79.0578 96.6212 74.7965 102.209 68.8011L102.502 68.4839L102.522 68.4776C103.215 69.1887 103.908 69.8999 104.603 70.6096L107.778 73.849C114.257 80.4677 120.684 87.1506 126.321 94.5157C129.567 98.7569 132.483 103.203 134.996 107.917C136.185 110.15 137.264 112.438 138.239 114.773L138.623 115.702C139.08 116.814 139.573 118.059 139.847 119.315C139.032 120.125 138.435 121.314 137.776 122.232C137.028 123.274 136.165 124.266 135.277 125.191C134.379 126.128 133.393 127.026 132.347 127.796L132.221 127.886C131.021 128.739 129.643 129.327 129.463 130.95C129.385 131.654 130.014 132.221 130.597 132.44C132.193 133.04 133.846 131.317 134.909 130.326C135.572 129.708 136.182 129.042 136.748 128.339C137.298 128.418 137.852 128.457 138.4 128.392C139.25 128.291 140.091 128.143 140.918 127.925C147.782 126.122 152.862 120.422 155.603 114.074C159.283 105.551 159.198 95.7263 157.668 86.7135C154.873 70.243 145.826 54.8613 132.165 45.1233C128.339 42.3961 124.097 40.038 119.49 38.9614ZM112.095 41.1648C120.92 40.6996 128.966 45.2521 135.421 50.919C147.175 61.2371 154.414 76.3444 155.871 91.8582C156.645 100.101 156.066 108.985 151.769 116.268C150.102 119.093 147.956 121.555 145.421 123.631C143.033 125.588 140.311 126.715 137.401 127.483C137.534 127.3 137.665 127.116 137.792 126.929C138.469 125.938 139.006 124.884 139.457 123.78C139.497 123.82 139.571 123.828 139.616 123.767C141.452 121.246 140.877 118.238 140.002 115.465C139.084 112.557 137.921 109.728 136.593 106.983C131.753 96.98 124.554 88.2659 117.081 80.1342C113.265 75.9813 109.322 71.9488 105.394 67.9025C103.432 65.882 101.476 63.8555 99.5437 61.8059C98.5823 60.7855 97.6267 59.7598 96.6798 58.7258C95.7435 57.7035 94.9009 56.6208 93.7352 55.8551C92.8058 55.2449 91.8781 56.4111 92.3125 57.2785C92.9805 58.6126 94.1294 59.6703 95.1461 60.7551L95.2508 60.8675C96.2418 61.9377 97.2422 62.9993 98.2485 64.0553C99.4058 65.2697 100.572 66.4758 101.742 67.6789C100.744 67.5632 99.7347 67.4967 98.7428 67.346C97.3958 67.1414 96.0669 66.84 94.7448 66.5122C93.3515 66.1671 91.9761 65.7264 90.6488 65.1786C89.4016 64.6642 88.223 63.8399 86.8508 63.7592C85.6892 63.6907 85.3265 65.1293 85.97 65.8864C86.8569 66.9296 88.4515 67.3402 89.7482 67.7276L89.9313 67.7828C91.3656 68.2208 92.8333 68.5494 94.3168 68.769C96.2687 69.0581 98.5246 69.1904 100.613 68.8945C96.4426 71.3407 92.605 74.3723 88.7782 77.3288L88.103 77.8497C84.3642 80.7274 80.7152 83.8296 78.0494 87.7669C75.5611 91.4425 74.0585 95.7217 73.2154 100.058C72.7994 102.197 72.5249 104.358 72.3407 106.529C71.6543 108.454 71.7645 110.742 71.9374 112.859L71.9991 113.589L71.9945 113.804C71.9687 115.127 71.4369 118.075 72.6893 119.075C72.7106 119.181 72.7305 119.288 72.7529 119.395C72.597 119.299 72.443 119.2 72.2902 119.098C72.2275 119.056 72.1666 119.009 72.1052 118.964L71.9321 118.822C71.9255 118.816 71.9198 118.811 71.9152 118.807C71.5265 118.466 71.1557 118.11 70.8101 117.724C70.1714 117.012 69.5642 116.107 68.9892 115.065C67.7256 112.774 66.9183 110.283 66.294 107.708C65.1528 103.001 64.6818 97.944 65.2024 93.1159C65.2751 92.4419 65.4242 91.5969 65.6556 90.73C66.2049 88.6714 66.8368 86.6347 67.5443 84.6253C68.9596 80.6057 70.6945 76.7061 72.7174 72.9559C76.8257 65.3388 82.1116 58.2966 88.445 52.387C94.8589 46.4022 103.177 41.6348 112.095 41.1648ZM124.54 65.5017C124.222 65.3073 123.895 65.6849 124.052 65.9897C124.816 67.4647 126.101 68.71 127.169 69.9739C128.274 71.2825 129.371 72.5984 130.465 73.9162C132.694 76.5993 134.869 79.3316 136.958 82.1248L137.51 82.8637C139.346 85.3303 141.161 87.8359 142.766 90.4567C143.606 91.8277 144.347 93.2456 145.019 94.7059C145.659 96.0959 145.954 97.7738 146.723 99.0796C146.771 99.162 146.921 99.1552 146.94 99.051C147.191 97.6451 146.571 95.9518 146.128 94.6353C145.601 93.0696 144.852 91.5783 144.049 90.138C142.376 87.1334 140.37 84.3172 138.356 81.5349C136.309 78.7098 134.185 75.9424 131.956 73.2587C130.91 71.9981 129.839 70.7627 128.737 69.5517L128.322 69.0987C127.168 67.8458 126.004 66.3957 124.54 65.5017ZM129.89 61.1338C129.367 60.746 128.921 61.5386 129.254 61.9587C131.248 64.4683 133.517 66.7232 135.7 69.0637C137.796 71.3114 139.799 73.6432 141.689 76.0668C145.543 81.0088 148.628 86.4316 151.241 92.115C151.291 92.2222 151.446 92.1423 151.422 92.0387C150.038 85.8912 146.803 80.3078 143.118 75.2631L142.978 75.0717C139.252 69.9987 134.968 64.899 129.89 61.1338Z" fill="black"/>
<path fill-rule="evenodd" clip-rule="evenodd" d="M87.5533 123.814C88.2505 124.726 89.5128 125.424 90.9265 125.758C92.2737 126.076 93.7626 126.063 95.0474 125.573L95.1577 125.53C96.1184 125.13 97.0405 124.324 97.3907 123.483C97.5299 123.149 97.577 122.809 97.4818 122.492C97.396 122.207 97.1951 121.944 96.8604 121.718C96.7554 121.648 96.6144 121.642 96.4801 121.666C96.3135 121.696 96.1493 121.774 96.0502 121.879C95.5005 122.464 94.703 123.034 93.759 123.024C93.0307 123.017 92.4359 122.729 91.8591 122.404L91.4538 122.172C91.0628 121.948 90.6662 121.739 90.2175 121.643C89.4142 121.471 88.44 121.785 87.8463 122.302C87.5875 122.527 87.3994 122.793 87.3483 123.078C87.3054 123.318 87.3657 123.568 87.5533 123.814ZM91.7293 107.866C90.134 108.836 87.7031 111.098 89.4194 113.503C91.4396 115.624 94.3482 113.193 95.7815 112.093C97.1105 111.241 98.6038 113.433 97.3707 114.428C87.0135 122.099 82.8104 108.12 90.9224 106.726C91.8156 106.572 92.1473 107.566 91.7293 107.866ZM109.728 92.9562L109.269 92.8305L108.802 92.7043L108.486 92.6207C106.315 92.0523 103.921 91.5521 101.768 91.7963C100.983 91.8855 100.346 92.3275 100.235 93.1502C100.141 93.8445 100.59 94.7402 101.353 94.8637C103.881 95.2728 106.47 95.1401 109.009 95.562C110.274 95.7718 111.529 96.0324 112.789 96.2672C113.748 96.446 114.738 96.5088 115.704 96.6534L115.482 96.6842C115.404 96.6948 115.423 96.8256 115.5 96.8203C115.819 96.7885 116.138 96.7836 116.457 96.8059L116.594 96.8172C116.803 96.8466 116.926 96.5976 116.74 96.4712C115.562 95.6721 114.563 94.806 113.245 94.2169C112.105 93.7076 110.931 93.2876 109.728 92.9562ZM89.9657 91.7307C88.2967 90.0428 84.7474 90.6914 82.7619 91.4635C81.6287 91.9044 80.5512 92.4617 79.6538 93.2955L79.5663 93.3775L79.4315 93.5072C78.8257 94.1005 78.1501 94.9169 78.2463 95.7723C78.2609 95.9027 78.3319 96.0517 78.4791 96.0779C79.2743 96.2189 80.0554 95.7991 80.7897 95.5466L81.2761 95.3796C82.0064 95.1308 82.7414 94.893 83.4944 94.7213C84.4307 94.5082 85.3859 94.385 86.3471 94.3973C87.3188 94.4099 88.3624 94.6843 89.288 94.2983C90.3202 93.8682 90.8554 92.6306 89.9657 91.7307ZM106.454 105.343C106.88 105.778 107.443 106.024 108.162 105.878C108.725 105.764 109.796 105.198 110.651 104.327C111.236 103.731 111.726 102.986 111.859 102.123C111.89 101.923 111.996 101.794 112.136 101.713C112.246 101.649 112.391 101.617 112.549 101.633C112.684 101.647 112.827 101.695 112.937 101.76C113.147 101.883 113.232 102.057 113.25 102.187C113.418 103.444 112.933 104.69 112.177 105.741C111.157 107.159 109.658 108.199 108.778 108.442C107.27 108.858 105.682 108.527 104.511 107.477C103.575 106.638 103.095 105.545 102.65 104.421L102.564 104.203C102.464 103.948 102.365 103.695 102.259 103.444C102.048 102.943 102.116 102.509 102.32 102.17C102.547 101.796 102.966 101.532 103.431 101.451C103.862 101.376 104.323 101.458 104.687 101.721C104.994 101.943 105.242 102.296 105.33 102.816C105.473 103.663 105.805 104.635 106.391 105.276L106.454 105.343ZM80.6111 100.442C80.9622 100.259 81.237 100.204 81.6265 100.321C81.842 100.385 82.0549 100.509 82.2216 100.676C82.3868 100.841 82.506 101.047 82.5523 101.275C82.6662 101.838 82.974 102.364 83.4125 102.708C83.7874 103.001 84.2605 103.157 84.7853 103.069C85.3516 102.974 85.8911 102.611 86.2627 102.183C86.3662 102.063 86.451 101.93 86.5331 101.796L86.5821 101.715C86.7652 101.413 86.9431 101.131 87.1956 100.909C87.2914 100.825 87.4356 100.766 87.5753 100.766C87.632 100.766 87.6897 100.776 87.7446 100.793C88.3082 101.359 88.4166 101.788 88.3984 102.214C88.3794 102.66 88.2034 103.112 87.919 103.534C87.2519 104.524 85.9853 105.335 85.1306 105.519C83.9601 105.771 82.7976 105.469 81.8656 104.814C80.9066 104.142 80.196 103.097 79.9744 101.919C79.9212 101.636 79.9438 101.33 80.0518 101.064C80.1572 100.805 80.3411 100.583 80.6111 100.442Z" fill="black"/>
<path fill-rule="evenodd" clip-rule="evenodd" d="M80.1108 92.1487C75.1519 92.1487 72.3221 93.2155 71.2851 93.2986L71.2539 93.3008C70.8226 93.3284 70.4356 93.3645 70.0297 93.5215C68.537 94.0967 68.2938 95.6629 69.1649 96.6499C69.226 98.6923 68.9575 101.079 69.4182 103.128C69.9866 111.766 74.0473 113.224 76.3556 113.756C77.5144 114.023 78.8879 114.129 80.1189 113.847C82.2188 113.769 84.2949 113.111 86.0711 111.966C88.5449 110.37 90.3823 107.917 90.9785 105.005C91.2611 103.617 91.3932 102.173 91.2394 100.762L91.2166 100.568C92.0207 100.183 92.9524 100.11 93.913 100.076C94.3718 100.06 94.824 100.045 95.2634 100.065C95.6928 100.113 96.1172 100.177 96.5428 100.264C97.0075 100.404 97.4465 100.635 97.8518 101.002L97.8797 101.537C97.9558 102.874 98.1313 104.215 98.4019 105.527C98.8015 107.463 99.4443 109.311 100.812 110.684C101.275 111.376 101.848 111.993 102.544 112.528C105.071 114.474 108.504 115.189 111.655 114.92C118.051 114.374 121.748 109.294 122.6 107.123L122.651 106.991C123.267 105.377 123.757 103.283 125.702 102.936L126.116 102.862C127.004 102.695 127.823 102.463 128.343 101.597C128.571 101.218 128.688 100.795 128.717 100.364C129.021 100.388 129.324 100.41 129.626 100.432C132.036 100.941 146.493 101.374 147.647 101.374C147.647 101.374 149.865 102.308 150.801 101.584C151.451 101.081 151.664 100.41 151.307 99.6505C150.768 98.5074 148.28 97.8198 147.176 97.6021C147.176 97.6021 129.352 97.7502 128.069 97.5069C127.276 96.6881 125.856 96.8002 124.67 96.6707C123.687 95.9702 122.314 95.5009 121.228 95.1869C121.007 95.103 120.788 95.022 120.575 94.9456C118.586 94.2367 116.518 93.8613 114.418 93.6597C112.253 93.4538 110.081 93.547 107.929 93.842C107.022 93.9651 106.123 94.1243 105.231 94.3324C103.634 94.5431 102.045 94.8902 100.447 95.3019L100.127 95.3851C98.4442 95.8265 96.7147 96.2083 94.9725 95.909C93.5541 95.667 92.1901 95.121 90.8824 94.5305L90.7121 94.4532C87.8366 93.1398 83.346 92.1487 80.1108 92.1487ZM105.404 96.9511C106.465 96.7176 106.918 98.3541 105.854 98.5881C105.1 98.7539 104.461 99.1341 104.03 99.7783L103.984 99.8483C103.405 100.77 101.941 99.9192 102.524 98.9914C103.18 97.9472 104.2 97.2159 105.404 96.9511ZM74.3296 95.9364C74.7036 95.6728 75.2696 95.8685 75.4868 96.241C75.7258 96.6511 75.5691 97.1077 75.2188 97.376L75.1832 97.4022C74.8619 97.6288 74.5489 98.0349 74.5096 98.451L74.5062 98.503C74.4641 99.592 72.7724 99.5975 72.8147 98.503C72.8559 97.4324 73.4756 96.5379 74.3296 95.9364Z" fill="black"/>
</svg>
