<svg width="240" height="324" viewBox="0 0 240 324" fill="none" xmlns="http://www.w3.org/2000/svg">
<path fill-rule="evenodd" clip-rule="evenodd" d="M194.637 251.934C193.785 247.123 193.005 242.299 192.295 237.465C191.958 235.17 191.63 232.872 191.335 230.571C191.128 228.959 190.813 227.115 191.909 225.921C193.452 224.241 194.854 222.802 195.043 220.395C195.22 218.13 194.455 215.66 193.976 213.462C192.972 208.851 191.722 204.297 190.341 199.787C188.938 195.204 187.4 190.664 185.839 186.133C184.38 181.897 182.977 177.622 181.077 173.558C177.47 165.845 171.369 160.133 163.828 156.318C161.953 155.37 158.128 151.984 156.169 151.226C154.367 150.528 154.374 152.564 152.601 151.797C151.184 151.184 149.864 150.367 149.071 148.998C148.209 147.512 146.049 145.433 145.72 143.703C145.023 140.036 145.778 136.914 143.161 134.154C140.839 131.703 137.717 130.024 134.487 129.123C127.38 127.14 117.903 128.526 113.616 135.132C111.568 138.287 110.852 142.1 108.089 144.674C105.676 146.922 106.216 148.459 103.091 149.618C102.914 149.683 98.1169 148.654 97.9398 148.72C94.5211 147.988 91.2536 150.037 88.1171 151.226C83.4411 152.998 78.9893 155.304 74.8068 158.046C66.3732 163.574 59.15 170.752 53.195 178.875C47.1907 187.064 42.5321 196.244 39.215 205.838C38.4094 208.168 37.6858 210.527 37.0476 212.908C36.6903 214.241 36.3086 215.624 36.7436 216.989C37.0993 218.105 37.8907 218.936 38.8201 219.606C40.0799 220.514 42.6069 221.105 42.5576 222.931C42.52 224.32 42.0491 225.781 41.8193 227.153C41.5457 228.788 41.3209 230.431 41.0961 232.073C40.0736 239.544 39.2777 247.057 38.9257 254.592C38.5793 262.011 38.2917 269.581 38.8062 276.998C38.8402 277.487 38.9859 277.936 39.2211 278.315C39.0016 278.399 38.9847 278.809 39.2579 278.867C39.4493 278.907 39.6402 278.948 39.8317 278.988C40.2293 279.289 40.7251 279.474 41.2957 279.492C41.6826 279.504 42.0692 279.521 42.4556 279.541C46.5333 280.394 50.6103 281.199 54.7412 281.809C59.7626 282.551 64.7988 283.155 69.8507 283.647C80.2313 284.656 90.5302 284.321 100.925 283.777C111.303 283.234 121.675 283.107 132.064 283.377C142.462 283.648 152.857 284.1 163.257 284.285C174.877 284.492 186.478 284.174 198.064 283.25C199.653 283.124 200.636 281.86 200.322 280.281C198.445 270.825 196.318 261.432 194.637 251.934Z" fill="white"/>
<path fill-rule="evenodd" clip-rule="evenodd" d="M94.6977 148.487C95.7722 148.44 96.8679 148.614 97.9398 148.72C98.0332 148.729 98.0687 148.873 97.9635 148.895C96.045 149.296 94.1476 149.844 92.2634 150.401L91.4567 150.64C89.332 151.269 87.2696 151.918 85.2127 152.756C81.1132 154.428 77.2198 156.684 73.6365 159.275C59.8382 169.256 49.8515 184.366 43.5494 200.01C41.8379 204.259 40.3878 208.613 39.2132 213.041C38.9275 214.118 38.6588 215.199 38.404 216.284C38.3292 216.602 38.0032 217.417 38.182 217.742C38.34 218.03 38.9543 218.208 39.2398 218.357L40.2034 218.857C42.083 219.826 45.214 221.419 45.5279 221.575L46.0176 221.816C54.0269 225.744 62.5848 229.075 71.5977 229.305L71.6683 228.535C72.0701 224.278 72.5974 219.999 73.7484 215.873C73.8103 215.651 74.0924 215.726 74.1181 215.923C74.7593 220.808 74.5544 225.73 74.3307 230.637C73.9346 239.328 73.4085 248.015 72.941 256.702C72.7069 261.048 72.4044 265.392 72.1312 269.735C71.8576 274.088 71.7691 278.544 71.1443 282.861C71.0051 283.823 69.8786 284.346 69.0255 284.245C68.0816 284.132 67.3555 283.301 67.351 282.347C67.3396 279.833 67.6555 277.288 67.831 274.78C67.9977 272.397 68.1767 270.015 68.3601 267.633C69.0302 258.94 69.8011 250.257 70.5141 241.568C70.7668 238.486 71.0398 235.407 71.3208 232.328C61.7729 232.02 52.853 228.482 44.3436 224.349C44.2204 227.146 43.9229 229.939 43.635 232.725C42.8311 240.5 42.1223 248.271 41.5918 256.07C41.3239 260.009 41.1289 263.953 40.9591 267.897C40.8756 269.836 40.8076 271.775 40.7554 273.714C40.7379 274.361 40.7222 275.007 40.7082 275.654L40.6792 277.135C40.6554 278.073 40.5601 278.943 39.7707 279.626C38.9689 280.32 37.886 280.357 37.0924 279.626C36.0302 278.647 36.218 277.314 36.2495 276C36.2757 274.891 36.3072 273.783 36.3437 272.675C36.417 270.459 36.5106 268.243 36.6245 266.028C37.023 258.285 37.8191 250.573 38.8596 242.892L39.2658 239.927C40.0243 234.415 40.857 228.777 42.5527 223.468C41.8924 223.139 41.2341 222.808 40.5784 222.476C39.4151 221.887 38.2124 221.334 37.0817 220.684C36.1846 220.168 35.411 219.46 35.1612 218.416C34.8827 217.252 35.3086 215.98 35.5915 214.845L35.6161 214.745C35.8935 213.602 36.1922 212.464 36.5074 211.331C37.7856 206.737 39.3661 202.232 41.2158 197.837C44.9193 189.038 49.6996 180.679 55.5389 173.121C60.795 166.317 67.0041 160.148 74.2815 155.52C77.8392 153.258 81.6306 151.4 85.6403 150.087C87.5144 149.473 89.5536 148.939 91.5158 148.72C92.5743 148.601 93.6342 148.533 94.6977 148.487ZM113.736 134.544C115.013 133.173 117.55 134.592 116.937 136.408C115.494 140.682 113.198 144.58 109.614 147.388C106.245 150.027 102.228 151.742 97.9015 151.376C97.8681 151.373 97.8392 151.364 97.8136 151.352L98.1865 151.858C101.114 155.819 104.201 159.725 107.923 162.963C115.506 169.559 125.831 173.117 135.801 170.586C143.645 168.595 150.555 162.39 152.588 154.482C152.296 154.613 151.95 154.658 151.57 154.575C149.944 154.222 148.334 152.511 147.285 151.284C146.151 149.957 145.265 148.524 144.615 146.904C143.427 143.94 143.045 140.123 144.668 137.252C144.869 136.898 145.33 137.096 145.37 137.442L145.432 137.981C145.744 140.672 146.134 143.275 147.403 145.729C148.023 146.929 148.767 148.101 149.673 149.106C150.158 149.644 150.683 150.158 151.25 150.609C151.803 151.049 152.472 151.366 152.968 151.871L153.058 151.967L153.061 151.95C153.186 150.885 153.933 150.415 154.664 150.445C155.371 150.473 156.202 150.785 156.523 150.934L156.554 150.948C161.487 153.317 166.031 156.405 170.307 159.831C179.15 166.917 185.776 176.179 188.986 187.086C190.561 192.44 191.465 197.956 192.42 203.446L193.007 206.81C193.898 211.879 194.893 217.047 196.904 221.762C197.424 222.981 197.023 224.125 195.748 224.605C194.155 225.204 192.557 225.784 190.956 226.356C191.742 229.73 192.221 233.221 192.81 236.611C194.062 243.818 195.596 250.979 196.912 258.176C197.584 261.856 198.191 265.549 198.863 269.229C199.186 271.001 199.524 272.771 199.852 274.543C200.029 275.498 200.189 276.456 200.358 277.413L200.387 277.572C200.484 278.076 200.606 278.598 200.467 279.103C200.309 279.679 199.859 280.086 199.458 280.499C199.128 280.839 198.651 280.841 198.246 280.656L198.113 280.594C197.39 280.256 196.824 279.919 196.568 279.103C196.406 278.587 196.347 278.005 196.241 277.473C196.038 276.454 195.845 275.433 195.663 274.409C195.298 272.36 194.943 270.31 194.595 268.258L194.271 266.337C193.157 259.715 192.1 253.054 191.566 246.362C191.328 243.394 191.077 240.428 190.823 237.461L190.633 235.236C190.392 232.42 190.098 229.533 190.056 226.678L189.099 227.018L184.428 228.67C183.269 229.08 181.795 229.919 180.548 229.766C179.938 229.691 179.473 229.499 179.114 229.15C179.544 235.223 180.126 241.285 180.902 247.316C181.608 252.804 182.391 258.285 183.316 263.74C183.773 266.442 184.244 269.141 184.755 271.832C185.01 273.179 185.274 274.523 185.546 275.866C185.681 276.536 185.842 277.206 185.948 277.882C186.069 278.655 185.856 279.131 185.424 279.768C185.069 280.29 184.359 280.559 183.784 280.198C183.022 279.72 182.625 279.305 182.401 278.434C182.197 277.643 182.073 276.817 181.916 276.016C181.625 274.537 181.344 273.056 181.072 271.574C180.504 268.473 179.981 265.364 179.514 262.246C177.867 251.263 176.822 240.187 176.294 229.093C176.034 223.62 175.953 218.142 176 212.663C176.023 209.854 176.115 207.038 176.313 204.237C176.515 201.401 176.933 198.622 177.306 195.813C177.32 195.714 177.459 195.709 177.465 195.813C177.642 198.962 177.919 202.107 178.055 205.264C178.184 208.276 178.241 211.293 178.344 214.307C178.48 218.268 178.668 222.232 178.916 226.192C179.367 225.7 180.045 225.415 180.724 225.526C181.708 225.32 182.767 224.804 183.704 224.49L187.24 223.309C189.098 222.688 190.957 222.071 192.822 221.473C191.154 215.861 190.012 210.165 189.037 204.387L188.602 201.788C187.741 196.672 186.812 191.554 185.253 186.6C183.613 181.392 181.159 176.55 177.904 172.165C174.696 167.844 170.792 164.039 166.773 160.48C163.332 157.433 159.651 154.682 156.142 151.719C156.178 151.915 156.186 152.131 156.154 152.369C155.408 157.832 152.559 162.92 148.588 166.704C140.612 174.307 128.805 175.884 118.596 172.319C108.721 168.871 99.9897 160.704 96.905 150.597C96.8521 150.425 97.0837 150.356 97.1767 150.483C97.3478 150.718 97.5198 150.952 97.6919 151.187C97.6803 151.094 97.7287 150.992 97.8436 150.948C101.443 149.557 104.977 147.586 107.675 144.797C108.99 143.437 110.138 141.897 111.043 140.235C111.477 139.44 111.867 138.616 112.178 137.764L112.257 137.544C112.634 136.477 112.949 135.389 113.736 134.544Z" fill="black"/>
<path fill-rule="evenodd" clip-rule="evenodd" d="M132.798 46.2809C144.794 46.2809 159.818 59.9703 164.215 65.7956C167.912 70.6933 167.389 95.9245 167.389 110.892C167.389 114.022 165.975 119.946 165.462 122.941C163.58 133.913 155.382 143.115 139.157 143.115C125.946 143.115 115.779 138.929 105.948 128.222C103.705 125.779 92.7511 134.524 90.5109 131.375C84.6595 131.375 79.7668 76.682 91.2552 60.2774C102.744 43.8727 120.802 46.2809 132.798 46.2809Z" fill="white"/>
<path fill-rule="evenodd" clip-rule="evenodd" d="M96.743 50.1333C103.675 43.8245 112.909 40.7895 122.226 41.0135C127.051 41.1297 131.86 42.0491 136.417 43.6237C138.697 44.4141 140.904 45.4455 143.015 46.6122C143.775 47.0316 144.477 47.5231 145.152 48.0451L145.32 48.1762H145.322C147.132 48.8271 148.749 49.9959 150.215 51.3633C153.154 51.1287 156.116 51.3929 158.957 52.2996C162.912 53.5635 166.573 55.8778 169.144 59.1643C172.139 62.9904 173.135 67.6314 172.78 72.4224L172.714 73.2363C172.363 77.4685 171.734 82.9121 168.261 85.693C167.997 85.9043 167.706 86.0649 167.404 86.1622C169.641 89.996 171.477 94.2526 172.575 98.5515C176.769 114.971 173.545 132.095 168.502 147.921C168.088 149.225 166.117 150.091 165.113 148.817C163.322 146.539 160.719 144.801 157.791 144.476C155.985 144.275 154.187 144.639 152.48 143.819C151.81 143.495 151.163 142.967 150.699 142.324C147.817 143.417 144.713 143.933 141.635 143.806C136.584 143.599 131.184 141.849 127.709 138.011C127.151 137.395 127.009 136.703 127.138 136.079C127.574 135.924 128.021 135.808 128.482 135.735C132.889 138.334 137.747 140.07 142.968 140.179C145.985 140.242 148.927 139.82 151.373 137.936C151.902 137.528 152.389 137.076 152.839 136.591C157.953 133.3 161.559 127.71 163.273 121.722C164.87 116.138 164.674 110.324 164.125 104.596L163.835 101.574C163.413 97.1376 163.021 92.6883 162.911 88.2334L162.944 88.2317C164.024 88.1619 164.032 86.4705 162.944 86.5409C160.13 86.7231 157.338 86.2613 154.532 86.4625C154.509 85.1358 154.413 83.8151 154.024 82.5356C153.801 81.8045 152.529 81.6604 152.394 82.5356C152.213 83.7065 152.148 84.8708 152.128 86.047C147.93 85.9912 143.736 85.6378 139.537 85.783C138.762 84.9566 138.516 83.4913 138.154 82.472C138.101 82.3219 138.048 82.174 137.993 82.0239C137.675 83.4805 137.223 84.9053 136.63 86.3L135.6 86.3034C129.757 86.3309 123.796 86.5056 118.091 87.7194C117.694 87.4148 117.458 86.8835 117.394 86.401C116.981 83.2612 116.39 80.2049 115.343 77.2128L115.193 76.7907C115.181 76.7556 115.168 76.7184 115.155 76.6793C114.383 77.9248 113.463 79.0857 112.459 80.1668C111.868 80.804 111.248 81.4133 110.611 82.0053C109.993 82.6922 109.354 83.3687 108.734 84.0577C108.758 84.1831 108.78 84.3103 108.797 84.4399C108.986 85.8696 109.006 87.3197 108.867 88.755C108.616 91.3497 107.884 93.85 106.707 96.163L106.67 96.3946C106.492 97.4786 106.237 98.5988 105.644 99.4151C106.385 100.245 106.955 101.237 107.286 102.339C107.581 103.32 106.224 104.17 105.521 103.367C104.962 102.729 104.341 102.202 103.659 101.781C103.616 101.839 103.538 101.868 103.451 101.819C101.551 100.764 98.3254 101.083 96.4282 102.077C94.0684 103.311 93.1473 105.845 93.4092 108.413C93.6606 110.867 94.7339 113.735 96.8149 114.992C97.7698 115.569 98.5135 115.618 99.5275 115.341C99.8518 115.253 100.254 114.983 100.426 114.849L100.596 114.712C101.261 114.187 101.88 113.827 102.665 113.813C103.468 113.563 104.274 113.91 104.581 114.752L104.6 114.806C104.744 115.236 105.006 115.774 104.949 116.43C104.89 117.131 104.568 117.77 104.089 118.283C104.006 118.372 103.918 118.461 103.827 118.543C112.087 127.49 113.148 141.43 108.912 152.606C108.728 153.097 108.532 153.581 108.327 154.061C107.619 155.705 104.894 155.196 104.547 153.566C104.444 153.078 104.33 152.592 104.205 152.11C103.976 151.219 103.713 150.337 103.418 149.468L103.305 149.142C103.054 148.424 102.819 147.699 102.566 146.98L102.54 146.898C102.531 146.866 102.52 146.828 102.509 146.786L102.08 147.722L100.776 150.548C100.166 151.867 98.2281 151.15 98.156 149.879L98.1543 149.836C98.148 149.601 98.1395 149.369 98.1247 149.138C98.0318 147.411 97.7339 145.733 97.2606 144.091L97.0899 144.303C94.5475 147.448 91.5637 150.395 87.4705 151.121C86.4437 151.302 85.2818 150.229 85.9874 149.191C86.2789 148.762 86.5599 148.322 86.8261 147.876C86.5958 147.769 86.3782 147.657 86.1775 147.543C84.6247 146.67 83.3318 145.427 82.2628 144.017C79.9958 141.029 79.1846 137.267 78.986 133.585C78.7747 129.694 79.117 125.592 80.1797 121.838C80.6402 120.215 81.2635 118.657 81.9839 117.146C81.9332 117.011 81.8846 116.876 81.836 116.74C81.0585 114.572 80.4205 112.355 79.8902 110.112C78.8212 105.585 78.2466 100.914 78.1768 96.2626C78.0501 87.929 79.4867 79.4623 82.5142 71.691C85.6409 63.6766 90.3437 55.956 96.743 50.1333ZM92.8494 122.994C92.2752 122.09 90.8386 122.905 91.3717 123.815L91.3916 123.848C92.3022 125.283 92.7289 126.915 93.2529 128.515C93.5888 129.544 95.2219 129.104 94.8818 128.064L94.7692 127.717C94.2478 126.095 93.7722 124.446 92.8494 122.994ZM97.8501 105.731L98.2315 105.546C99.4347 104.972 100.489 104.581 101.911 105.082C103.814 105.752 105.853 107.885 104.566 109.954C104.093 110.717 103.252 111.021 102.386 110.842C100.926 110.539 100.549 109.223 99.8078 108.143L99.6803 107.96C99.2285 107.307 98.6572 106.404 97.905 106.147C97.7339 106.088 97.662 105.822 97.8501 105.731ZM98.923 61.8L99.0459 61.6899C99.8635 60.9671 98.6635 59.7751 97.8501 60.4937C94.1275 63.7844 92.8346 68.935 90.9036 73.3247C90.4705 74.3117 91.9261 75.174 92.3635 74.1786C94.2054 69.9897 95.4281 64.9789 98.923 61.8ZM143.657 60.3605C142.684 59.922 141.833 61.3381 142.769 61.8043L142.804 61.8209C146.091 63.3067 147.49 66.6714 148.829 69.7952C149.256 70.7928 150.711 69.9326 150.289 68.9434L150.047 68.3829C148.649 65.1638 147.019 61.8825 143.657 60.3605ZM148.81 58.3273C147.779 57.9701 147.337 59.6018 148.36 59.9589C151.147 60.929 153.059 63.0214 154.67 65.4139C155.275 66.31 156.739 65.4646 156.128 64.56C154.256 61.7829 152.034 59.4517 148.81 58.3273Z" fill="black"/>
<path fill-rule="evenodd" clip-rule="evenodd" d="M143.152 128.274C141.732 127.695 140.465 126.728 139.538 125.493C139.216 125.063 139.133 124.61 139.2 124.195C139.276 123.729 139.552 123.306 139.928 123.023C140.305 122.739 140.777 122.598 141.233 122.67C141.63 122.732 142.024 122.949 142.337 123.399L142.402 123.489C142.953 124.235 143.67 124.846 144.488 125.241C145.276 125.621 146.158 125.798 147.07 125.695C148.808 125.499 150.005 124.559 151.278 123.282C151.436 123.121 151.594 122.955 151.752 122.786C151.852 122.633 151.991 122.534 152.146 122.483C152.317 122.425 152.511 122.429 152.689 122.491C152.86 122.55 153.013 122.664 153.116 122.815C153.213 122.958 153.269 123.135 153.251 123.339C153.134 124.661 152.443 125.842 151.461 126.769C150.37 127.799 148.924 128.511 147.563 128.761C146.064 129.036 144.536 128.839 143.152 128.274ZM148.271 107.866C149.866 108.836 152.297 111.098 150.581 113.503C148.56 115.624 145.652 113.193 144.219 112.093C142.89 111.241 141.396 113.433 142.629 114.428C152.986 122.099 157.19 108.12 149.078 106.726C148.184 106.572 147.853 107.566 148.271 107.866ZM129.711 98.9429C129.887 96.7541 133.219 96.257 133.551 98.423C133.847 100.363 133.498 102.145 132.624 103.892C131.79 105.561 129.692 104.783 129.533 103.263C129.32 101.226 129.601 100.304 129.711 98.9429ZM155.076 97.9739C155.541 97.3652 156.212 96.9497 157.015 97.1845C159.526 97.9185 158.786 101.485 157.904 103.22C157.425 104.163 155.876 104.402 155.176 103.572C154.035 102.219 153.489 99.5157 154.939 98.1825C154.979 98.1136 155.023 98.044 155.076 97.9739ZM132.589 89.3654L132.986 89.2959C134.213 89.0836 135.738 88.8796 136.606 89.8665C137.067 90.3898 137.225 91.3624 136.606 91.8633C135.518 92.7446 134.314 92.4031 133.01 92.4777C131.935 92.5394 130.902 92.7174 129.867 93.0135C127.595 93.663 125.744 94.8486 123.804 96.1505C123.55 96.3213 123.29 95.9956 123.411 95.7574C124.531 93.563 126.701 91.7604 128.875 90.6616C130.036 90.0751 131.305 89.5885 132.589 89.3654ZM152.787 88.3823L153.091 88.4445C156.395 89.1353 160.687 90.5153 162.251 93.7615C162.311 94.2205 162.248 94.3189 162.197 94.3832L162.18 94.4046C162.137 94.4595 162.104 94.5351 161.905 94.5976C161.85 94.5844 161.794 94.5705 161.737 94.5557C161.02 94.3677 160.453 94.1087 159.904 93.84L159.308 93.5465C158.617 93.2076 157.92 92.881 157.181 92.6399C155.605 92.1255 153.983 91.7631 152.337 91.5696C151.98 91.5277 151.636 91.4072 151.365 91.2007C151.108 91.0046 150.911 90.7332 150.821 90.3724C150.705 89.9056 150.738 89.5521 150.989 89.1309C151.177 88.8146 151.447 88.5953 151.756 88.4694C152.071 88.3411 152.43 88.3108 152.787 88.3823Z" fill="black"/>
</svg>
